<?xml version="1.0" encoding="UTF-8" standalone="no"?>
<!-- Created with Inkscape (http://www.inkscape.org/) -->

<svg
   xmlns:dc="http://purl.org/dc/elements/1.1/"
   xmlns:cc="http://creativecommons.org/ns#"
   xmlns:rdf="http://www.w3.org/1999/02/22-rdf-syntax-ns#"
   xmlns:svg="http://www.w3.org/2000/svg"
   xmlns="http://www.w3.org/2000/svg"
   xmlns:xlink="http://www.w3.org/1999/xlink"
   xmlns:sodipodi="http://sodipodi.sourceforge.net/DTD/sodipodi-0.dtd"
   xmlns:inkscape="http://www.inkscape.org/namespaces/inkscape"
   width="1000"
   height="1000"
   id="svg2"
   version="1.1"
   inkscape:version="0.48.5 r10040"
   sodipodi:docname="poyEvo.svg"
   inkscape:export-filename="C:\Users\Johan\Desktop\JOHAN\HTML\poyoCore\libs\js\poyEvo.png"
   inkscape:export-xdpi="90"
   inkscape:export-ydpi="90">
  <defs
     id="defs4">
    <radialGradient
       inkscape:collect="always"
       xlink:href="#linearGradient2843"
       id="radialGradient2849"
       cx="371.57996"
       cy="575.05316"
       fx="371.57996"
       fy="575.05316"
       r="160"
       gradientTransform="matrix(1.404493,-0.99549848,1.1299638,1.5941958,-799.89801,-66.74416)"
       gradientUnits="userSpaceOnUse" />
    <linearGradient
       id="linearGradient2843">
      <stop
         style="stop-color:#b78f00;stop-opacity:1;"
         offset="0"
         id="stop2845" />
      <stop
         style="stop-color:#000000;stop-opacity:1;"
         offset="1"
         id="stop2847" />
    </linearGradient>
    <radialGradient
       inkscape:collect="always"
       xlink:href="#linearGradient2843"
       id="radialGradient3815"
       gradientUnits="userSpaceOnUse"
       gradientTransform="matrix(1.404493,-0.99549848,1.1299638,1.5941958,-799.89801,-66.74416)"
       cx="371.57996"
       cy="575.05316"
       fx="371.57996"
       fy="575.05316"
       r="160" />
    <filter
       inkscape:collect="always"
       id="filter3819"
       x="-0.10641651"
       width="1.212833"
       y="-0.13755861"
       height="1.2751172">
      <feGaussianBlur
         inkscape:collect="always"
         stdDeviation="21.011719"
         id="feGaussianBlur3821" />
    </filter>
    <radialGradient
       inkscape:collect="always"
       xlink:href="#linearGradient2843"
       id="radialGradient3839"
       gradientUnits="userSpaceOnUse"
       gradientTransform="matrix(1.404493,-0.99549848,1.1299638,1.5941958,-799.89801,-66.74416)"
       cx="371.57996"
       cy="575.05316"
       fx="371.57996"
       fy="575.05316"
       r="160" />
    <radialGradient
       inkscape:collect="always"
       xlink:href="#linearGradient2843"
       id="radialGradient3847"
       gradientUnits="userSpaceOnUse"
       gradientTransform="matrix(1.404493,-0.99549848,1.1299638,1.5941958,-799.89801,-66.74416)"
       cx="371.57996"
       cy="575.05316"
       fx="371.57996"
       fy="575.05316"
       r="160" />
    <radialGradient
       inkscape:collect="always"
       xlink:href="#linearGradient2843"
       id="radialGradient3855"
       gradientUnits="userSpaceOnUse"
       gradientTransform="matrix(1.404493,-0.99549848,1.1299638,1.5941958,-799.89801,-66.74416)"
       cx="371.57996"
       cy="575.05316"
       fx="371.57996"
       fy="575.05316"
       r="160" />
  </defs>
  <sodipodi:namedview
     id="base"
     pagecolor="#ffffff"
     bordercolor="#666666"
     borderopacity="1.0"
     inkscape:pageopacity="0.0"
     inkscape:pageshadow="2"
     inkscape:zoom="0.405"
     inkscape:cx="-133.8391"
     inkscape:cy="509.54732"
     inkscape:document-units="px"
     inkscape:current-layer="layer1"
     showgrid="false"
     inkscape:window-width="1920"
     inkscape:window-height="1027"
     inkscape:window-x="-8"
     inkscape:window-y="-8"
     inkscape:window-maximized="1" />
  <metadata
     id="metadata7">
    <rdf:RDF>
      <cc:Work
         rdf:about="">
        <dc:format>image/svg+xml</dc:format>
        <dc:type
           rdf:resource="http://purl.org/dc/dcmitype/StillImage" />
        <dc:title></dc:title>
      </cc:Work>
    </rdf:RDF>
  </metadata>
  <g
     inkscape:label="Calque 1"
     inkscape:groupmode="layer"
     id="layer1"
     transform="translate(0,-52.362183)">
    <g
       transform="matrix(0.67878452,0,0,0.67878452,224.44457,-67.057575)"
       id="g3849"
       style="opacity:0.1">
      <path
         inkscape:connector-curvature="0"
         style="fill:#000000;fill-opacity:1;stroke:none"
         d="m 290.62873,405.72384 c -17.4195,0 -31.5599,26.62377 -31.5599,59.42976 0,32.80599 14.1404,59.36572 31.5599,59.36572 17.4195,0 31.5214,-26.55973 31.5214,-59.36572 0,-32.80599 -14.1019,-59.42976 -31.5214,-59.42976 z m 179.8027,2.49759 c -17.4195,0 -31.5599,26.55973 -31.5599,59.36572 0,32.80598 14.1404,59.42976 31.5599,59.42976 17.4195,0 31.5214,-26.62378 31.5214,-59.42976 0,-32.80599 -14.1019,-59.36572 -31.5214,-59.36572 z"
         id="path3851" />
      <path
         inkscape:connector-curvature="0"
         style="fill:url(#radialGradient3855);fill-opacity:1;stroke:none"
         d="m 527.30923,261.7812 c -64.8291,35.15562 -116.8342,190.42628 -146.9733,259.68501 -30.2579,-66.25142 -81.8964,-219.03041 -146.1409,-252.76861 -104.428,54.84064 -175.663652,164.35024 -175.663652,290.48858 0,61.34376 16.85551,118.74966 46.173342,167.85065 -26.689662,46.45786 -42.344672,100.04766 -43.355552,157.21985 l 46.813752,0 c 0.84253,-40.8857 10.43182,-79.63254 26.96113,-114.44067 60.14744,71.69067 150.39358,117.25847 251.29568,117.25847 94.24,0 179.1894,-39.7683 238.9999,-103.42568 14.9042,33.30151 23.5391,70.03088 24.3355,108.67708 l 46.8136,0 c -0.9519,-53.8349 -14.8416,-104.50792 -38.7445,-149.02272 35.67,-52.48064 56.4839,-115.87865 56.4839,-184.11698 0,-130.65344 -76.4216,-243.42433 -186.9989,-296.12416 l 0,-1.28082 z m 0,54.24247 c 83.763,48.66181 140.1211,139.30861 140.1211,243.16251 0,155.21805 -125.7925,281.0746 -281.0106,281.0746 -155.21807,0 -281.0746,-125.85655 -281.0746,-281.0746 0,-99.13657 51.30995,-186.26919 128.8499,-236.31015 56.0597,36.17856 98.4174,190.11297 117.5787,255.58639 l 9.478,0 39.0008,0 9.478,0 c 19.1613,-67.60885 61.519,-223.35112 117.5787,-260.70965 l 0,-1.7291 z"
         id="path3853" />
    </g>
    <path
       inkscape:connector-curvature="0"
       id="path3827"
       d="m 418.17625,559.43786 c -3.01611,1.8e-4 -5.68244,0.22913 -8.04612,0.67051 37.12935,1.48205 68.44553,12.32129 93.91082,32.53945 l 229.78765,0 0,80.97392 c -3.8e-4,7.90149 1.50665,13.5759 4.5358,16.99939 3.0284,3.42416 7.06473,5.12776 12.06918,5.12743 5.00368,3.3e-4 9.00056,-1.70327 12.02973,-5.12743 3.02837,-3.42349 4.57484,-9.0979 4.57525,-16.99939 l 0,-114.18388 -348.86231,0 z m 85.8647,33.20996 -8.04612,0 0,38.33738 c 17.9148,19.10985 26.89891,40.33441 26.89927,63.65899 -4e-4,16.32937 -4.91461,32.39582 -14.79065,48.19782 -3.35569,5.36899 -7.41534,10.41803 -12.10862,15.22452 l 0,7.21784 38.14017,0 c 2.78134,-4.05977 5.42093,-8.38643 7.9278,-12.97634 9.34926,-17.11888 14.04082,-36.33042 14.04126,-57.66384 -4.4e-4,-36.08157 -14.42881,-67.55924 -43.2676,-94.42356 -2.84964,-2.65438 -5.78259,-5.1807 -8.79551,-7.57281 z M 534.135,765.28437 c -7.59244,11.08234 -16.1967,20.20123 -25.83434,27.33314 -2.71728,2.02889 -5.46171,3.958 -8.20389,5.83737 l 114.81495,0 0,37.54855 c -2.6e-4,7.90133 1.61173,13.5363 4.77245,16.95996 3.1602,3.424 7.22261,5.12759 12.22694,5.12743 4.74042,1.6e-4 8.71123,-1.70343 11.87197,-5.12743 3.16017,-3.42366 4.73272,-9.05863 4.73301,-16.95996 l 0,-108.26761 c -2.9e-4,-7.90084 -1.57284,-13.57526 -4.73301,-16.99939 -3.16074,-3.42352 -7.13155,-5.12712 -11.87197,-5.12743 -5.00433,3.1e-4 -9.06674,1.70391 -12.22694,5.12743 -3.16072,3.42413 -4.77271,9.09855 -4.77245,16.99939 l 0,37.54855 -80.77672,0 z m -34.03823,33.17051 -4.10194,0 0,2.72149 c 1.36721,-0.89598 2.74088,-1.78867 4.10194,-2.72149 z m -4.10194,2.72149 c -10.87026,7.12368 -21.9124,13.11141 -33.17052,17.90655 l 0,169.40227 -44.64806,0 c -3.91766,1.3e-4 -7.28019,0.39921 -10.09709,1.14387 3.84626,0.71336 6.82938,1.98661 8.95328,3.86529 3.42353,3.02875 5.12712,7.02565 5.12743,12.02965 -3.1e-4,4.7407 -1.7039,8.7115 -5.12743,11.8721 -1.72657,1.5935 -4.03751,2.7596 -6.90231,3.5497 2.36368,0.4606 5.03001,0.71 8.04612,0.71 l 366.21668,0 0,-131.14386 c -4.3e-4,-7.90101 -1.50745,-13.57543 -4.5358,-16.9994 -3.02919,-3.42368 -7.02609,-5.12728 -12.02974,-5.12743 -5.00447,1.5e-4 -9.04079,1.70375 -12.06917,5.12743 -3.02917,3.42397 -4.5362,9.09839 -4.53581,16.9994 l 0,97.97325 -255.22758,0 0,-187.30882 z m -85.8647,219.76943 c -3.82836,-0.7459 -6.797,-2.069 -8.91383,-4.023 -3.42388,-3.1606 -5.16691,-7.1314 -5.16687,-11.8721 -4e-5,-5.004 1.74299,-9.0009 5.16687,-12.02965 1.72617,-1.52705 3.99859,-2.63483 6.86286,-3.39199 -2.35467,-0.4367 -5.04594,-0.67044 -8.04612,-0.67057 l -113.75001,0 0,-156.46537 103.88958,0 c 22.64967,1.9e-4 41.59912,-2.48968 56.875,-7.49394 5.29483,-1.72079 10.565,-3.69645 15.7767,-5.91626 l 0,-37.07525 c -0.58214,0.30459 -1.1445,0.60626 -1.73543,0.90716 -21.46513,10.93017 -44.45091,16.408 -68.94419,16.40777 l -105.86166,0 0,-206.24092 118.08861,0 c 21.90985,2.7e-4 41.39593,4.29828 58.45267,12.81857 l 0,-13.25243 -44.64806,0 c -7.9012,4.3e-4 -13.53617,-1.54604 -16.95995,-4.57525 -3.42388,-3.02834 -5.16691,-7.02522 -5.16687,-12.02973 -4e-5,-5.00361 1.74299,-9.03995 5.16687,-12.06918 2.11683,-1.87231 5.08547,-3.15039 8.91383,-3.86529 -2.93621,-0.11725 -5.90469,-0.19718 -8.91383,-0.19721 l -192.79129,0 c -7.90124,4.7e-4 -13.5362,1.50748 -16.95996,4.5358 -3.42391,3.02923 -5.16694,7.06557 -5.16687,12.06918 -7e-5,5.00451 1.74296,9.00139 5.16687,12.02973 3.42376,3.02921 9.05872,4.53623 16.95996,4.53581 l 44.64806,0 0,395.87681 -44.64806,0 c -7.90124,1.3e-4 -13.5362,1.50712 -16.95996,4.53586 -3.42391,3.02875 -5.16694,7.02565 -5.16687,12.02965 -7e-5,4.7407 1.74296,8.7115 5.16687,11.8721 3.42376,3.1605 9.05872,4.733 16.95996,4.733 l 191.60803,0 c 3.91697,0 7.28043,-0.4066 10.09709,-1.1833 z m 52.69418,-415.04555 0,176.10742 c 13.37903,-7.00026 24.43035,-14.99013 33.17052,-23.94114 l 0,-127.08133 c -2.11131,-2.25216 -4.30553,-4.47204 -6.66566,-6.66566 -8.06092,-7.49164 -16.90743,-13.62513 -26.50486,-18.41929 z"
       style="font-size:641.03875732px;font-style:normal;font-variant:normal;font-weight:normal;font-stretch:normal;line-height:125%;letter-spacing:0px;word-spacing:0px;opacity:0.1;fill:#d00046;fill-opacity:1;stroke:#4e8fff;stroke-width:12.62136078;stroke-miterlimit:4;stroke-opacity:1;stroke-dasharray:none;font-family:Monospace;-inkscape-font-specification:Monospace" />
    <g
       id="g3841"
       transform="matrix(0.67878452,0,0,0.67878452,244.44457,-67.057575)"
       style="opacity:0.3">
      <path
         id="path3843"
         d="m 290.62873,405.72384 c -17.4195,0 -31.5599,26.62377 -31.5599,59.42976 0,32.80599 14.1404,59.36572 31.5599,59.36572 17.4195,0 31.5214,-26.55973 31.5214,-59.36572 0,-32.80599 -14.1019,-59.42976 -31.5214,-59.42976 z m 179.8027,2.49759 c -17.4195,0 -31.5599,26.55973 -31.5599,59.36572 0,32.80598 14.1404,59.42976 31.5599,59.42976 17.4195,0 31.5214,-26.62378 31.5214,-59.42976 0,-32.80599 -14.1019,-59.36572 -31.5214,-59.36572 z"
         style="fill:#000000;fill-opacity:1;stroke:none"
         inkscape:connector-curvature="0" />
      <path
         id="path3845"
         d="m 527.30923,261.7812 c -64.8291,35.15562 -116.8342,190.42628 -146.9733,259.68501 -30.2579,-66.25142 -81.8964,-219.03041 -146.1409,-252.76861 -104.428,54.84064 -175.663652,164.35024 -175.663652,290.48858 0,61.34376 16.85551,118.74966 46.173342,167.85065 -26.689662,46.45786 -42.344672,100.04766 -43.355552,157.21985 l 46.813752,0 c 0.84253,-40.8857 10.43182,-79.63254 26.96113,-114.44067 60.14744,71.69067 150.39358,117.25847 251.29568,117.25847 94.24,0 179.1894,-39.7683 238.9999,-103.42568 14.9042,33.30151 23.5391,70.03088 24.3355,108.67708 l 46.8136,0 c -0.9519,-53.8349 -14.8416,-104.50792 -38.7445,-149.02272 35.67,-52.48064 56.4839,-115.87865 56.4839,-184.11698 0,-130.65344 -76.4216,-243.42433 -186.9989,-296.12416 l 0,-1.28082 z m 0,54.24247 c 83.763,48.66181 140.1211,139.30861 140.1211,243.16251 0,155.21805 -125.7925,281.0746 -281.0106,281.0746 -155.21807,0 -281.0746,-125.85655 -281.0746,-281.0746 0,-99.13657 51.30995,-186.26919 128.8499,-236.31015 56.0597,36.17856 98.4174,190.11297 117.5787,255.58639 l 9.478,0 39.0008,0 9.478,0 c 19.1613,-67.60885 61.519,-223.35112 117.5787,-260.70965 l 0,-1.7291 z"
         style="fill:url(#radialGradient3847);fill-opacity:1;stroke:none"
         inkscape:connector-curvature="0" />
    </g>
    <g
       transform="matrix(0.67878452,0,0,0.67878452,264.44457,-67.057575)"
       id="g3833"
       style="opacity:0.5">
      <path
         inkscape:connector-curvature="0"
         style="fill:#000000;fill-opacity:1;stroke:none"
         d="m 290.62873,405.72384 c -17.4195,0 -31.5599,26.62377 -31.5599,59.42976 0,32.80599 14.1404,59.36572 31.5599,59.36572 17.4195,0 31.5214,-26.55973 31.5214,-59.36572 0,-32.80599 -14.1019,-59.42976 -31.5214,-59.42976 z m 179.8027,2.49759 c -17.4195,0 -31.5599,26.55973 -31.5599,59.36572 0,32.80598 14.1404,59.42976 31.5599,59.42976 17.4195,0 31.5214,-26.62378 31.5214,-59.42976 0,-32.80599 -14.1019,-59.36572 -31.5214,-59.36572 z"
         id="path3835" />
      <path
         inkscape:connector-curvature="0"
         style="fill:url(#radialGradient3839);fill-opacity:1;stroke:none"
         d="m 527.30923,261.7812 c -64.8291,35.15562 -116.8342,190.42628 -146.9733,259.68501 -30.2579,-66.25142 -81.8964,-219.03041 -146.1409,-252.76861 -104.428,54.84064 -175.663652,164.35024 -175.663652,290.48858 0,61.34376 16.85551,118.74966 46.173342,167.85065 -26.689662,46.45786 -42.344672,100.04766 -43.355552,157.21985 l 46.813752,0 c 0.84253,-40.8857 10.43182,-79.63254 26.96113,-114.44067 60.14744,71.69067 150.39358,117.25847 251.29568,117.25847 94.24,0 179.1894,-39.7683 238.9999,-103.42568 14.9042,33.30151 23.5391,70.03088 24.3355,108.67708 l 46.8136,0 c -0.9519,-53.8349 -14.8416,-104.50792 -38.7445,-149.02272 35.67,-52.48064 56.4839,-115.87865 56.4839,-184.11698 0,-130.65344 -76.4216,-243.42433 -186.9989,-296.12416 l 0,-1.28082 z m 0,54.24247 c 83.763,48.66181 140.1211,139.30861 140.1211,243.16251 0,155.21805 -125.7925,281.0746 -281.0106,281.0746 -155.21807,0 -281.0746,-125.85655 -281.0746,-281.0746 0,-99.13657 51.30995,-186.26919 128.8499,-236.31015 56.0597,36.17856 98.4174,190.11297 117.5787,255.58639 l 9.478,0 39.0008,0 9.478,0 c 19.1613,-67.60885 61.519,-223.35112 117.5787,-260.70965 l 0,-1.7291 z"
         id="path3837" />
    </g>
    <g
       id="g3811"
       transform="matrix(0.67878452,0,0,0.67878452,284.44457,-67.057575)">
      <path
         id="path2839"
         d="m 290.62873,405.72384 c -17.4195,0 -31.5599,26.62377 -31.5599,59.42976 0,32.80599 14.1404,59.36572 31.5599,59.36572 17.4195,0 31.5214,-26.55973 31.5214,-59.36572 0,-32.80599 -14.1019,-59.42976 -31.5214,-59.42976 z m 179.8027,2.49759 c -17.4195,0 -31.5599,26.55973 -31.5599,59.36572 0,32.80598 14.1404,59.42976 31.5599,59.42976 17.4195,0 31.5214,-26.62378 31.5214,-59.42976 0,-32.80599 -14.1019,-59.36572 -31.5214,-59.36572 z"
         style="fill:#000000;fill-opacity:1;stroke:none"
         inkscape:connector-curvature="0" />
      <path
         id="path2816"
         d="m 527.30923,261.7812 c -64.8291,35.15562 -116.8342,190.42628 -146.9733,259.68501 -30.2579,-66.25142 -81.8964,-219.03041 -146.1409,-252.76861 -104.428,54.84064 -175.663652,164.35024 -175.663652,290.48858 0,61.34376 16.85551,118.74966 46.173342,167.85065 -26.689662,46.45786 -42.344672,100.04766 -43.355552,157.21985 l 46.813752,0 c 0.84253,-40.8857 10.43182,-79.63254 26.96113,-114.44067 60.14744,71.69067 150.39358,117.25847 251.29568,117.25847 94.24,0 179.1894,-39.7683 238.9999,-103.42568 14.9042,33.30151 23.5391,70.03088 24.3355,108.67708 l 46.8136,0 c -0.9519,-53.8349 -14.8416,-104.50792 -38.7445,-149.02272 35.67,-52.48064 56.4839,-115.87865 56.4839,-184.11698 0,-130.65344 -76.4216,-243.42433 -186.9989,-296.12416 l 0,-1.28082 z m 0,54.24247 c 83.763,48.66181 140.1211,139.30861 140.1211,243.16251 0,155.21805 -125.7925,281.0746 -281.0106,281.0746 -155.21807,0 -281.0746,-125.85655 -281.0746,-281.0746 0,-99.13657 51.30995,-186.26919 128.8499,-236.31015 56.0597,36.17856 98.4174,190.11297 117.5787,255.58639 l 9.478,0 39.0008,0 9.478,0 c 19.1613,-67.60885 61.519,-223.35112 117.5787,-260.70965 l 0,-1.7291 z"
         style="fill:url(#radialGradient3815);fill-opacity:1;stroke:none"
         inkscape:connector-curvature="0" />
    </g>
    <path
       inkscape:connector-curvature="0"
       id="path3817"
       d="m 416.7979,668.75435 c -2.38969,1.4e-4 -4.50224,0.18154 -6.375,0.53125 29.41786,1.17424 54.22991,9.76225 74.40625,25.78125 l 182.0625,0 0,64.15625 c -3e-4,6.26041 1.19373,10.75629 3.59375,13.46875 2.39942,2.71299 5.59744,4.06276 9.5625,4.0625 3.96445,2.6e-4 7.13121,-1.34951 9.53125,-4.0625 2.3994,-2.71246 3.62468,-7.20834 3.625,-13.46875 l 0,-90.46875 -276.40625,0 z m 68.03125,26.3125 -6.375,0 0,30.375 c 14.19403,15.14088 21.31221,31.95726 21.3125,50.4375 -3.2e-4,12.93788 -3.89389,25.66745 -11.71875,38.1875 -2.65874,4.25389 -5.87523,8.25428 -9.59375,12.0625 l 0,5.71875 30.21875,0 c 2.20367,-3.21659 4.29504,-6.64463 6.28125,-10.28125 7.40749,-13.56342 11.12465,-28.78487 11.125,-45.6875 -3.5e-4,-28.5877 -11.43206,-53.5277 -34.28125,-74.8125 -2.25779,-2.10309 -4.58159,-4.10471 -6.96875,-6 z M 508.6729,831.8481 c -6.01555,8.78062 -12.83277,16.00559 -20.46875,21.65625 -2.15292,1.60751 -4.32735,3.13596 -6.5,4.625 l 90.96875,0 0,29.75 c -2e-4,6.26028 1.27699,10.72491 3.78125,13.4375 2.50385,2.71286 5.72253,4.06263 9.6875,4.0625 3.75587,1.3e-4 6.90197,-1.34964 9.40625,-4.0625 2.50383,-2.71259 3.74977,-7.17722 3.75,-13.4375 l 0,-85.78125 c -2.3e-4,-6.2599 -1.24617,-10.75578 -3.75,-13.46875 -2.50428,-2.71248 -5.65038,-4.06225 -9.40625,-4.0625 -3.96497,2.5e-4 -7.18365,1.35002 -9.6875,4.0625 -2.50426,2.71297 -3.78145,7.20885 -3.78125,13.46875 l 0,29.75 -64,0 z m -26.96875,26.28125 -3.25,0 0,2.15625 c 1.08325,-0.70989 2.17162,-1.41717 3.25,-2.15625 z m -3.25,2.15625 c -8.61259,5.64415 -17.36136,10.38827 -26.28125,14.1875 l 0,134.2187 -35.375,0 c -3.10399,1e-4 -5.76815,0.3163 -8,0.9063 3.04742,0.5652 5.41097,1.574 7.09375,3.0625 2.71249,2.3997 4.06226,5.5665 4.0625,9.5312 -2.4e-4,3.7561 -1.35001,6.9022 -4.0625,9.4063 -1.36797,1.2626 -3.19895,2.1865 -5.46875,2.8125 1.87276,0.3649 3.98531,0.5625 6.375,0.5625 l 290.15625,0 0,-103.90625 c -3.4e-4,-6.26003 -1.19436,-10.75591 -3.59375,-13.46875 -2.40005,-2.71261 -5.56682,-4.06238 -9.53125,-4.0625 -3.96508,1.2e-4 -7.16309,1.34989 -9.5625,4.0625 -2.40003,2.71284 -3.59406,7.20872 -3.59375,13.46875 l 0,77.62495 -202.21875,0 0,-148.4062 z m -68.03125,174.125 c -3.03324,-0.591 -5.38532,-1.6393 -7.0625,-3.1875 -2.71276,-2.5041 -4.09378,-5.6502 -4.09375,-9.4063 -3e-5,-3.9647 1.38099,-7.1315 4.09375,-9.5312 1.36766,-1.2099 3.16812,-2.0876 5.4375,-2.6875 -1.86562,-0.346 -3.99794,-0.5312 -6.375,-0.5313 l -90.125,0 0,-123.9687 82.3125,0 c 17.94551,1.5e-4 32.9593,-1.97259 45.0625,-5.9375 4.19513,-1.3634 8.37073,-2.92873 12.5,-4.6875 l 0,-29.375 c -0.46124,0.24133 -0.9068,0.48034 -1.375,0.71875 -17.00698,8.66005 -35.21879,13.00018 -54.625,13 l -83.875,0 0,-163.40625 93.5625,0 c 17.35934,2.2e-4 32.79831,3.40556 46.3125,10.15625 l 0,-10.5 -35.375,0 c -6.26018,3.4e-4 -10.72481,-1.22494 -13.4375,-3.625 -2.71276,-2.39938 -4.09378,-5.56614 -4.09375,-9.53125 -3e-5,-3.9644 1.38099,-7.16242 4.09375,-9.5625 1.67718,-1.48345 4.02926,-2.49608 7.0625,-3.0625 -2.32638,-0.0929 -4.67833,-0.15623 -7.0625,-0.15625 l -152.75,0 c -6.26021,3.7e-4 -10.72483,1.19439 -13.4375,3.59375 -2.71279,2.40008 -4.09381,5.5981 -4.09375,9.5625 -6e-5,3.96511 1.38096,7.13187 4.09375,9.53125 2.71267,2.40006 7.17729,3.59409 13.4375,3.59375 l 35.375,0 0,313.6562 -35.375,0 c -6.26021,1e-4 -10.72483,1.1941 -13.4375,3.5938 -2.71279,2.3997 -4.09381,5.5665 -4.09375,9.5312 -6e-5,3.7561 1.38096,6.9022 4.09375,9.4063 2.71267,2.5041 7.17729,3.75 13.4375,3.75 l 151.8125,0 c 3.10344,0 5.76834,-0.3221 8,-0.9375 z m 41.75,-328.84375 0,139.53125 c 10.6003,-5.54636 19.35635,-11.8768 26.28125,-18.96875 l 0,-100.6875 c -1.67281,-1.7844 -3.4113,-3.54323 -5.28125,-5.28125 -6.38673,-5.93569 -13.39589,-10.7953 -21,-14.59375 z"
       style="font-size:641.03875732px;font-style:normal;font-variant:normal;font-weight:normal;font-stretch:normal;line-height:125%;letter-spacing:0px;word-spacing:0px;fill:#000000;fill-opacity:1;stroke:none;filter:url(#filter3819);font-family:Monospace;-inkscape-font-specification:Monospace"
       transform="matrix(1.2621361,0,0,1.2621361,-47.879428,-284.62115)" />
    <path
       inkscape:connector-curvature="0"
       id="path3823"
       d="m 458.17625,559.43786 c -3.01611,1.8e-4 -5.68244,0.22913 -8.04612,0.67051 37.12935,1.48205 68.44553,12.32129 93.91082,32.53945 l 229.78765,0 0,80.97392 c -3.8e-4,7.90149 1.50665,13.5759 4.5358,16.99939 3.0284,3.42416 7.06473,5.12776 12.06918,5.12743 5.00368,3.3e-4 9.00056,-1.70327 12.02973,-5.12743 3.02837,-3.42349 4.57484,-9.0979 4.57525,-16.99939 l 0,-114.18388 -348.86231,0 z m 85.8647,33.20996 -8.04612,0 0,38.33738 c 17.9148,19.10985 26.89891,40.33441 26.89927,63.65899 -4e-4,16.32937 -4.91461,32.39582 -14.79065,48.19782 -3.35569,5.36899 -7.41534,10.41803 -12.10862,15.22452 l 0,7.21784 38.14017,0 c 2.78134,-4.05977 5.42093,-8.38643 7.9278,-12.97634 9.34926,-17.11888 14.04082,-36.33042 14.04126,-57.66384 -4.4e-4,-36.08157 -14.42881,-67.55924 -43.2676,-94.42356 -2.84964,-2.65438 -5.78259,-5.1807 -8.79551,-7.57281 z M 574.135,765.28437 c -7.59244,11.08234 -16.1967,20.20123 -25.83434,27.33314 -2.71728,2.02889 -5.46171,3.958 -8.20389,5.83737 l 114.81495,0 0,37.54855 c -2.6e-4,7.90133 1.61173,13.5363 4.77245,16.95996 3.1602,3.424 7.22261,5.12759 12.22694,5.12743 4.74042,1.6e-4 8.71123,-1.70343 11.87197,-5.12743 3.16017,-3.42366 4.73272,-9.05863 4.73301,-16.95996 l 0,-108.26761 c -2.9e-4,-7.90084 -1.57284,-13.57526 -4.73301,-16.99939 -3.16074,-3.42352 -7.13155,-5.12712 -11.87197,-5.12743 -5.00433,3.1e-4 -9.06674,1.70391 -12.22694,5.12743 -3.16072,3.42413 -4.77271,9.09855 -4.77245,16.99939 l 0,37.54855 -80.77672,0 z m -34.03823,33.17051 -4.10194,0 0,2.72149 c 1.36721,-0.89598 2.74088,-1.78867 4.10194,-2.72149 z m -4.10194,2.72149 c -10.87026,7.12368 -21.9124,13.11141 -33.17052,17.90655 l 0,169.40227 -44.64806,0 c -3.91766,1.3e-4 -7.28019,0.39921 -10.09709,1.14387 3.84626,0.71336 6.82938,1.98661 8.95328,3.86529 3.42353,3.02875 5.12712,7.02565 5.12743,12.02965 -3.1e-4,4.7407 -1.7039,8.7115 -5.12743,11.8721 -1.72657,1.5935 -4.03751,2.7596 -6.90231,3.5497 2.36368,0.4606 5.03001,0.71 8.04612,0.71 l 366.21668,0 0,-131.14386 c -4.3e-4,-7.90101 -1.50745,-13.57543 -4.5358,-16.9994 -3.02919,-3.42368 -7.02609,-5.12728 -12.02974,-5.12743 -5.00447,1.5e-4 -9.04079,1.70375 -12.06917,5.12743 -3.02917,3.42397 -4.5362,9.09839 -4.53581,16.9994 l 0,97.97325 -255.22758,0 0,-187.30882 z m -85.8647,219.76943 c -3.82836,-0.7459 -6.797,-2.069 -8.91383,-4.023 -3.42388,-3.1606 -5.16691,-7.1314 -5.16687,-11.8721 -4e-5,-5.004 1.74299,-9.0009 5.16687,-12.02965 1.72617,-1.52705 3.99859,-2.63483 6.86286,-3.39199 -2.35467,-0.4367 -5.04594,-0.67044 -8.04612,-0.67057 l -113.75001,0 0,-156.46537 103.88958,0 c 22.64967,1.9e-4 41.59912,-2.48968 56.875,-7.49394 5.29483,-1.72079 10.565,-3.69645 15.7767,-5.91626 l 0,-37.07525 c -0.58214,0.30459 -1.1445,0.60626 -1.73543,0.90716 -21.46513,10.93017 -44.45091,16.408 -68.94419,16.40777 l -105.86166,0 0,-206.24092 118.08861,0 c 21.90985,2.7e-4 41.39593,4.29828 58.45267,12.81857 l 0,-13.25243 -44.64806,0 c -7.9012,4.3e-4 -13.53617,-1.54604 -16.95995,-4.57525 -3.42388,-3.02834 -5.16691,-7.02522 -5.16687,-12.02973 -4e-5,-5.00361 1.74299,-9.03995 5.16687,-12.06918 2.11683,-1.87231 5.08547,-3.15039 8.91383,-3.86529 -2.93621,-0.11725 -5.90469,-0.19718 -8.91383,-0.19721 l -192.79129,0 c -7.90124,4.7e-4 -13.5362,1.50748 -16.95996,4.5358 -3.42391,3.02923 -5.16694,7.06557 -5.16687,12.06918 -7e-5,5.00451 1.74296,9.00139 5.16687,12.02973 3.42376,3.02921 9.05872,4.53623 16.95996,4.53581 l 44.64806,0 0,395.87681 -44.64806,0 c -7.90124,1.3e-4 -13.5362,1.50712 -16.95996,4.53586 -3.42391,3.02875 -5.16694,7.02565 -5.16687,12.02965 -7e-5,4.7407 1.74296,8.7115 5.16687,11.8721 3.42376,3.1605 9.05872,4.733 16.95996,4.733 l 191.60803,0 c 3.91697,0 7.28043,-0.4066 10.09709,-1.1833 z m 52.69418,-415.04555 0,176.10742 c 13.37903,-7.00026 24.43035,-14.99013 33.17052,-23.94114 l 0,-127.08133 c -2.11131,-2.25216 -4.30553,-4.47204 -6.66566,-6.66566 -8.06092,-7.49164 -16.90743,-13.62513 -26.50486,-18.41929 z"
       style="font-size:641.03875732px;font-style:normal;font-variant:normal;font-weight:normal;font-stretch:normal;line-height:125%;letter-spacing:0px;word-spacing:0px;opacity:0.5;fill:#d00046;fill-opacity:1;stroke:#4e8fff;stroke-width:12.62136078;stroke-miterlimit:4;stroke-opacity:1;stroke-dasharray:none;font-family:Monospace;-inkscape-font-specification:Monospace" />
    <path
       style="font-size:641.03875732px;font-style:normal;font-variant:normal;font-weight:normal;font-stretch:normal;line-height:125%;letter-spacing:0px;word-spacing:0px;fill:#d00046;fill-opacity:1;stroke:#4e8fff;stroke-width:12.62136078;stroke-miterlimit:4;stroke-opacity:1;stroke-dasharray:none;font-family:Monospace;-inkscape-font-specification:Monospace"
       d="m 478.17625,559.43786 c -3.01611,1.8e-4 -5.68244,0.22913 -8.04612,0.67051 37.12935,1.48205 68.44553,12.32129 93.91082,32.53945 l 229.78765,0 0,80.97392 c -3.8e-4,7.90149 1.50665,13.5759 4.5358,16.99939 3.0284,3.42416 7.06473,5.12776 12.06918,5.12743 5.00368,3.3e-4 9.00056,-1.70327 12.02973,-5.12743 3.02837,-3.42349 4.57484,-9.0979 4.57525,-16.99939 l 0,-114.18388 -348.86231,0 z m 85.8647,33.20996 -8.04612,0 0,38.33738 c 17.9148,19.10985 26.89891,40.33441 26.89927,63.65899 -4e-4,16.32937 -4.91461,32.39582 -14.79065,48.19782 -3.35569,5.36899 -7.41534,10.41803 -12.10862,15.22452 l 0,7.21784 38.14017,0 c 2.78134,-4.05977 5.42093,-8.38643 7.9278,-12.97634 9.34926,-17.11888 14.04082,-36.33042 14.04126,-57.66384 -4.4e-4,-36.08157 -14.42881,-67.55924 -43.2676,-94.42356 -2.84964,-2.65438 -5.78259,-5.1807 -8.79551,-7.57281 z M 594.135,765.28437 c -7.59244,11.08234 -16.1967,20.20123 -25.83434,27.33314 -2.71728,2.02889 -5.46171,3.958 -8.20389,5.83737 l 114.81495,0 0,37.54855 c -2.6e-4,7.90133 1.61173,13.5363 4.77245,16.95996 3.1602,3.424 7.22261,5.12759 12.22694,5.12743 4.74042,1.6e-4 8.71123,-1.70343 11.87197,-5.12743 3.16017,-3.42366 4.73272,-9.05863 4.73301,-16.95996 l 0,-108.26761 c -2.9e-4,-7.90084 -1.57284,-13.57526 -4.73301,-16.99939 -3.16074,-3.42352 -7.13155,-5.12712 -11.87197,-5.12743 -5.00433,3.1e-4 -9.06674,1.70391 -12.22694,5.12743 -3.16072,3.42413 -4.77271,9.09855 -4.77245,16.99939 l 0,37.54855 -80.77672,0 z m -34.03823,33.17051 -4.10194,0 0,2.72149 c 1.36721,-0.89598 2.74088,-1.78867 4.10194,-2.72149 z m -4.10194,2.72149 c -10.87026,7.12368 -21.9124,13.11141 -33.17052,17.90655 l 0,169.40227 -44.64806,0 c -3.91766,1.3e-4 -7.28019,0.39921 -10.09709,1.14387 3.84626,0.71336 6.82938,1.98661 8.95328,3.86529 3.42353,3.02875 5.12712,7.02565 5.12743,12.02965 -3.1e-4,4.7407 -1.7039,8.7115 -5.12743,11.8721 -1.72657,1.5935 -4.03751,2.7596 -6.90231,3.5497 2.36368,0.4606 5.03001,0.71 8.04612,0.71 l 366.21668,0 0,-131.14386 c -4.3e-4,-7.90101 -1.50745,-13.57543 -4.5358,-16.9994 -3.02919,-3.42368 -7.02609,-5.12728 -12.02974,-5.12743 -5.00447,1.5e-4 -9.04079,1.70375 -12.06917,5.12743 -3.02917,3.42397 -4.5362,9.09839 -4.53581,16.9994 l 0,97.97325 -255.22758,0 0,-187.30882 z m -85.8647,219.76943 c -3.82836,-0.7459 -6.797,-2.069 -8.91383,-4.023 -3.42388,-3.1606 -5.16691,-7.1314 -5.16687,-11.8721 -4e-5,-5.004 1.74299,-9.0009 5.16687,-12.02965 1.72617,-1.52705 3.99859,-2.63483 6.86286,-3.39199 -2.35467,-0.4367 -5.04594,-0.67044 -8.04612,-0.67057 l -113.75001,0 0,-156.46537 103.88958,0 c 22.64967,1.9e-4 41.59912,-2.48968 56.875,-7.49394 5.29483,-1.72079 10.565,-3.69645 15.7767,-5.91626 l 0,-37.07525 c -0.58214,0.30459 -1.1445,0.60626 -1.73543,0.90716 -21.46513,10.93017 -44.45091,16.408 -68.94419,16.40777 l -105.86166,0 0,-206.24092 118.08861,0 c 21.90985,2.7e-4 41.39593,4.29828 58.45267,12.81857 l 0,-13.25243 -44.64806,0 c -7.9012,4.3e-4 -13.53617,-1.54604 -16.95995,-4.57525 -3.42388,-3.02834 -5.16691,-7.02522 -5.16687,-12.02973 -4e-5,-5.00361 1.74299,-9.03995 5.16687,-12.06918 2.11683,-1.87231 5.08547,-3.15039 8.91383,-3.86529 -2.93621,-0.11725 -5.90469,-0.19718 -8.91383,-0.19721 l -192.79129,0 c -7.90124,4.7e-4 -13.5362,1.50748 -16.95996,4.5358 -3.42391,3.02923 -5.16694,7.06557 -5.16687,12.06918 -7e-5,5.00451 1.74296,9.00139 5.16687,12.02973 3.42376,3.02921 9.05872,4.53623 16.95996,4.53581 l 44.64806,0 0,395.87681 -44.64806,0 c -7.90124,1.3e-4 -13.5362,1.50712 -16.95996,4.53586 -3.42391,3.02875 -5.16694,7.02565 -5.16687,12.02965 -7e-5,4.7407 1.74296,8.7115 5.16687,11.8721 3.42376,3.1605 9.05872,4.733 16.95996,4.733 l 191.60803,0 c 3.91697,0 7.28043,-0.4066 10.09709,-1.1833 z m 52.69418,-415.04555 0,176.10742 c 13.37903,-7.00026 24.43035,-14.99013 33.17052,-23.94114 l 0,-127.08133 c -2.11131,-2.25216 -4.30553,-4.47204 -6.66566,-6.66566 -8.06092,-7.49164 -16.90743,-13.62513 -26.50486,-18.41929 z"
       id="text2985"
       inkscape:connector-curvature="0" />
    <path
       style="font-size:641.03875732px;font-style:normal;font-variant:normal;font-weight:normal;font-stretch:normal;line-height:125%;letter-spacing:0px;word-spacing:0px;opacity:0.3;fill:#d00046;fill-opacity:1;stroke:#4e8fff;stroke-width:12.62136078;stroke-miterlimit:4;stroke-opacity:1;stroke-dasharray:none;font-family:Monospace;-inkscape-font-specification:Monospace"
       d="m 438.17625,559.43786 c -3.01611,1.8e-4 -5.68244,0.22913 -8.04612,0.67051 37.12935,1.48205 68.44553,12.32129 93.91082,32.53945 l 229.78765,0 0,80.97392 c -3.8e-4,7.90149 1.50665,13.5759 4.5358,16.99939 3.0284,3.42416 7.06473,5.12776 12.06918,5.12743 5.00368,3.3e-4 9.00056,-1.70327 12.02973,-5.12743 3.02837,-3.42349 4.57484,-9.0979 4.57525,-16.99939 l 0,-114.18388 -348.86231,0 z m 85.8647,33.20996 -8.04612,0 0,38.33738 c 17.9148,19.10985 26.89891,40.33441 26.89927,63.65899 -4e-4,16.32937 -4.91461,32.39582 -14.79065,48.19782 -3.35569,5.36899 -7.41534,10.41803 -12.10862,15.22452 l 0,7.21784 38.14017,0 c 2.78134,-4.05977 5.42093,-8.38643 7.9278,-12.97634 9.34926,-17.11888 14.04082,-36.33042 14.04126,-57.66384 -4.4e-4,-36.08157 -14.42881,-67.55924 -43.2676,-94.42356 -2.84964,-2.65438 -5.78259,-5.1807 -8.79551,-7.57281 z M 554.135,765.28437 c -7.59244,11.08234 -16.1967,20.20123 -25.83434,27.33314 -2.71728,2.02889 -5.46171,3.958 -8.20389,5.83737 l 114.81495,0 0,37.54855 c -2.6e-4,7.90133 1.61173,13.5363 4.77245,16.95996 3.1602,3.424 7.22261,5.12759 12.22694,5.12743 4.74042,1.6e-4 8.71123,-1.70343 11.87197,-5.12743 3.16017,-3.42366 4.73272,-9.05863 4.73301,-16.95996 l 0,-108.26761 c -2.9e-4,-7.90084 -1.57284,-13.57526 -4.73301,-16.99939 -3.16074,-3.42352 -7.13155,-5.12712 -11.87197,-5.12743 -5.00433,3.1e-4 -9.06674,1.70391 -12.22694,5.12743 -3.16072,3.42413 -4.77271,9.09855 -4.77245,16.99939 l 0,37.54855 -80.77672,0 z m -34.03823,33.17051 -4.10194,0 0,2.72149 c 1.36721,-0.89598 2.74088,-1.78867 4.10194,-2.72149 z m -4.10194,2.72149 c -10.87026,7.12368 -21.9124,13.11141 -33.17052,17.90655 l 0,169.40227 -44.64806,0 c -3.91766,1.3e-4 -7.28019,0.39921 -10.09709,1.14387 3.84626,0.71336 6.82938,1.98661 8.95328,3.86529 3.42353,3.02875 5.12712,7.02565 5.12743,12.02965 -3.1e-4,4.7407 -1.7039,8.7115 -5.12743,11.8721 -1.72657,1.5935 -4.03751,2.7596 -6.90231,3.5497 2.36368,0.4606 5.03001,0.71 8.04612,0.71 l 366.21668,0 0,-131.14386 c -4.3e-4,-7.90101 -1.50745,-13.57543 -4.5358,-16.9994 -3.02919,-3.42368 -7.02609,-5.12728 -12.02974,-5.12743 -5.00447,1.5e-4 -9.04079,1.70375 -12.06917,5.12743 -3.02917,3.42397 -4.5362,9.09839 -4.53581,16.9994 l 0,97.97325 -255.22758,0 0,-187.30882 z m -85.8647,219.76943 c -3.82836,-0.7459 -6.797,-2.069 -8.91383,-4.023 -3.42388,-3.1606 -5.16691,-7.1314 -5.16687,-11.8721 -4e-5,-5.004 1.74299,-9.0009 5.16687,-12.02965 1.72617,-1.52705 3.99859,-2.63483 6.86286,-3.39199 -2.35467,-0.4367 -5.04594,-0.67044 -8.04612,-0.67057 l -113.75001,0 0,-156.46537 103.88958,0 c 22.64967,1.9e-4 41.59912,-2.48968 56.875,-7.49394 5.29483,-1.72079 10.565,-3.69645 15.7767,-5.91626 l 0,-37.07525 c -0.58214,0.30459 -1.1445,0.60626 -1.73543,0.90716 -21.46513,10.93017 -44.45091,16.408 -68.94419,16.40777 l -105.86166,0 0,-206.24092 118.08861,0 c 21.90985,2.7e-4 41.39593,4.29828 58.45267,12.81857 l 0,-13.25243 -44.64806,0 c -7.9012,4.3e-4 -13.53617,-1.54604 -16.95995,-4.57525 -3.42388,-3.02834 -5.16691,-7.02522 -5.16687,-12.02973 -4e-5,-5.00361 1.74299,-9.03995 5.16687,-12.06918 2.11683,-1.87231 5.08547,-3.15039 8.91383,-3.86529 -2.93621,-0.11725 -5.90469,-0.19718 -8.91383,-0.19721 l -192.79129,0 c -7.90124,4.7e-4 -13.5362,1.50748 -16.95996,4.5358 -3.42391,3.02923 -5.16694,7.06557 -5.16687,12.06918 -7e-5,5.00451 1.74296,9.00139 5.16687,12.02973 3.42376,3.02921 9.05872,4.53623 16.95996,4.53581 l 44.64806,0 0,395.87681 -44.64806,0 c -7.90124,1.3e-4 -13.5362,1.50712 -16.95996,4.53586 -3.42391,3.02875 -5.16694,7.02565 -5.16687,12.02965 -7e-5,4.7407 1.74296,8.7115 5.16687,11.8721 3.42376,3.1605 9.05872,4.733 16.95996,4.733 l 191.60803,0 c 3.91697,0 7.28043,-0.4066 10.09709,-1.1833 z m 52.69418,-415.04555 0,176.10742 c 13.37903,-7.00026 24.43035,-14.99013 33.17052,-23.94114 l 0,-127.08133 c -2.11131,-2.25216 -4.30553,-4.47204 -6.66566,-6.66566 -8.06092,-7.49164 -16.90743,-13.62513 -26.50486,-18.41929 z"
       id="path3825"
       inkscape:connector-curvature="0" />
  </g>
</svg>
