<?xml version="1.0" encoding="UTF-8" standalone="no"?>
<!-- Created with Inkscape (http://www.inkscape.org/) -->

<svg
   xmlns:dc="http://purl.org/dc/elements/1.1/"
   xmlns:cc="http://creativecommons.org/ns#"
   xmlns:rdf="http://www.w3.org/1999/02/22-rdf-syntax-ns#"
   xmlns:svg="http://www.w3.org/2000/svg"
   xmlns="http://www.w3.org/2000/svg"
   xmlns:xlink="http://www.w3.org/1999/xlink"
   xmlns:sodipodi="http://sodipodi.sourceforge.net/DTD/sodipodi-0.dtd"
   xmlns:inkscape="http://www.inkscape.org/namespaces/inkscape"
   width="1000"
   height="1000"
   id="svg2"
   version="1.1"
   inkscape:version="0.91 r13725"
   sodipodi:docname="poyEvo.svg"
   inkscape:export-filename="C:\Users\Johan\Desktop\JOHAN\HTML\poyEvo\logos\poyEvo.png"
   inkscape:export-xdpi="90"
   inkscape:export-ydpi="90">
  <defs
     id="defs4">
    <linearGradient
       inkscape:collect="always"
       id="linearGradient4264">
      <stop
         style="stop-color:#000000;stop-opacity:1;"
         offset="0"
         id="stop4266" />
      <stop
         style="stop-color:#000000;stop-opacity:0;"
         offset="1"
         id="stop4268" />
    </linearGradient>
    <radialGradient
       inkscape:collect="always"
       xlink:href="#linearGradient2843"
       id="radialGradient2849"
       cx="371.57996"
       cy="575.05316"
       fx="371.57996"
       fy="575.05316"
       r="160"
       gradientTransform="matrix(1.404493,-0.99549848,1.1299638,1.5941958,-799.89801,-66.74416)"
       gradientUnits="userSpaceOnUse" />
    <linearGradient
       id="linearGradient2843">
      <stop
         style="stop-color:#b78f00;stop-opacity:1;"
         offset="0"
         id="stop2845" />
      <stop
         style="stop-color:#000000;stop-opacity:1;"
         offset="1"
         id="stop2847" />
    </linearGradient>
    <radialGradient
       inkscape:collect="always"
       xlink:href="#linearGradient2843"
       id="radialGradient3815"
       gradientUnits="userSpaceOnUse"
       gradientTransform="matrix(1.404493,-0.99549848,1.1299638,1.5941958,-799.89801,-66.74416)"
       cx="371.57996"
       cy="575.05316"
       fx="371.57996"
       fy="575.05316"
       r="160" />
    <linearGradient
       inkscape:collect="always"
       xlink:href="#linearGradient4264"
       id="linearGradient4272"
       x1="260.49384"
       y1="580.75726"
       x2="-38.271606"
       y2="568.41156"
       gradientUnits="userSpaceOnUse"
       gradientTransform="matrix(0.98961295,0,0,0.98315548,-0.63590349,-136.80557)" />
    <linearGradient
       inkscape:collect="always"
       xlink:href="#linearGradient4264"
       id="linearGradient4276"
       gradientUnits="userSpaceOnUse"
       gradientTransform="matrix(-0.97733798,0,0,1.0035167,1000.628,-149.19658)"
       x1="260.49384"
       y1="580.75726"
       x2="-38.271606"
       y2="568.41156" />
    <linearGradient
       inkscape:collect="always"
       xlink:href="#linearGradient4264"
       id="linearGradient4282"
       gradientUnits="userSpaceOnUse"
       gradientTransform="matrix(0.88048296,0,0,0.98315548,68.161593,-123.5369)"
       x1="260.49384"
       y1="580.75726"
       x2="-38.271606"
       y2="568.41156" />
    <linearGradient
       inkscape:collect="always"
       xlink:href="#linearGradient4264"
       id="linearGradient4284"
       gradientUnits="userSpaceOnUse"
       gradientTransform="matrix(-0.86956161,0,0,1.0035167,925.9674,-135.92792)"
       x1="260.49384"
       y1="580.75726"
       x2="-38.271606"
       y2="568.41156" />
    <linearGradient
       inkscape:collect="always"
       xlink:href="#linearGradient4264"
       id="linearGradient4290"
       gradientUnits="userSpaceOnUse"
       gradientTransform="matrix(0.7837541,0,0,0.98315548,115.28076,-162.63042)"
       x1="260.49384"
       y1="580.75726"
       x2="-38.271606"
       y2="568.41156" />
    <linearGradient
       inkscape:collect="always"
       xlink:href="#linearGradient4264"
       id="linearGradient4292"
       gradientUnits="userSpaceOnUse"
       gradientTransform="matrix(-0.77403256,0,0,1.0035167,878.849,-175.02144)"
       x1="260.49384"
       y1="580.75726"
       x2="-38.271606"
       y2="568.41156" />
    <linearGradient
       inkscape:collect="always"
       xlink:href="#linearGradient4264"
       id="linearGradient4298"
       gradientUnits="userSpaceOnUse"
       gradientTransform="matrix(0.69942638,0,0,0.98315548,156.35901,-201.72394)"
       x1="260.49384"
       y1="580.75726"
       x2="-38.271606"
       y2="568.41156" />
    <linearGradient
       inkscape:collect="always"
       xlink:href="#linearGradient4264"
       id="linearGradient4300"
       gradientUnits="userSpaceOnUse"
       gradientTransform="matrix(-0.69075083,0,0,1.0035167,837.77142,-214.11496)"
       x1="260.49384"
       y1="580.75726"
       x2="-38.271606"
       y2="568.41156" />
    <linearGradient
       inkscape:collect="always"
       xlink:href="#linearGradient4264"
       id="linearGradient4724"
       x1="500"
       y1="894.33746"
       x2="1016.0494"
       y2="881.99182"
       gradientUnits="userSpaceOnUse"
       spreadMethod="reflect"
       gradientTransform="matrix(0.99449808,0,0,0.99449809,7.9559847,16.056703)" />
  </defs>
  <sodipodi:namedview
     id="base"
     pagecolor="#ffffff"
     bordercolor="#666666"
     borderopacity="1.0"
     inkscape:pageopacity="0.0"
     inkscape:pageshadow="2"
     inkscape:zoom="0.57275649"
     inkscape:cx="151.80308"
     inkscape:cy="458.27013"
     inkscape:document-units="px"
     inkscape:current-layer="layer1"
     showgrid="false"
     inkscape:window-width="1920"
     inkscape:window-height="1027"
     inkscape:window-x="-8"
     inkscape:window-y="-8"
     inkscape:window-maximized="1"
     inkscape:snap-page="true"
     inkscape:snap-nodes="false"
     inkscape:snap-bbox="true"
     inkscape:bbox-nodes="true" />
  <metadata
     id="metadata7">
    <rdf:RDF>
      <cc:Work
         rdf:about="">
        <dc:format>image/svg+xml</dc:format>
        <dc:type
           rdf:resource="http://purl.org/dc/dcmitype/StillImage" />
        <dc:title />
      </cc:Work>
    </rdf:RDF>
  </metadata>
  <g
     inkscape:label="Calque 1"
     inkscape:groupmode="layer"
     id="layer1"
     transform="translate(0,-52.362183)">
    <g
       id="g3811"
       transform="matrix(0.66340189,0,0,0.66340189,247.03678,146.39151)">
      <path
         id="path2839"
         d="m 290.62873,405.72384 c -17.4195,0 -31.5599,26.62377 -31.5599,59.42976 0,32.80599 14.1404,59.36572 31.5599,59.36572 17.4195,0 31.5214,-26.55973 31.5214,-59.36572 0,-32.80599 -14.1019,-59.42976 -31.5214,-59.42976 z m 179.8027,2.49759 c -17.4195,0 -31.5599,26.55973 -31.5599,59.36572 0,32.80598 14.1404,59.42976 31.5599,59.42976 17.4195,0 31.5214,-26.62378 31.5214,-59.42976 0,-32.80599 -14.1019,-59.36572 -31.5214,-59.36572 z"
         style="fill:#000000;fill-opacity:1;stroke:none"
         inkscape:connector-curvature="0" />
      <path
         id="path2816"
         d="m 527.30923,261.7812 c -64.8291,35.15562 -116.8342,190.42628 -146.9733,259.68501 -30.2579,-66.25142 -81.8964,-219.03041 -146.1409,-252.76861 -104.428,54.84064 -175.663652,164.35024 -175.663652,290.48858 0,61.34376 16.85551,118.74966 46.173342,167.85065 -26.689662,46.45786 -42.344672,100.04766 -43.355552,157.21985 l 46.813752,0 c 0.84253,-40.8857 10.43182,-79.63254 26.96113,-114.44067 60.14744,71.69067 150.39358,117.25847 251.29568,117.25847 94.24,0 179.1894,-39.7683 238.9999,-103.42568 14.9042,33.30151 23.5391,70.03088 24.3355,108.67708 l 46.8136,0 c -0.9519,-53.8349 -14.8416,-104.50792 -38.7445,-149.02272 35.67,-52.48064 56.4839,-115.87865 56.4839,-184.11698 0,-130.65344 -76.4216,-243.42433 -186.9989,-296.12416 l 0,-1.28082 z m 0,54.24247 c 83.763,48.66181 140.1211,139.30861 140.1211,243.16251 0,155.21805 -125.7925,281.0746 -281.0106,281.0746 -155.21807,0 -281.0746,-125.85655 -281.0746,-281.0746 0,-99.13657 51.30995,-186.26919 128.8499,-236.31015 56.0597,36.17856 98.4174,190.11297 117.5787,255.58639 l 9.478,0 39.0008,0 9.478,0 c 19.1613,-67.60885 61.519,-223.35112 117.5787,-260.70965 l 0,-1.7291 z"
         style="fill:url(#radialGradient3815);fill-opacity:1;stroke:none"
         inkscape:connector-curvature="0" />
    </g>
    <path
       style="opacity:1;fill:url(#linearGradient4272);fill-opacity:1;stroke:none;stroke-width:1;stroke-miterlimit:4;stroke-dasharray:none;stroke-dashoffset:0;stroke-opacity:1"
       d="M 1.7675781 272.73633 C 0.78861098 272.73633 2.9605947e-016 273.51961 0 274.49219 L 0 678.80859 C 0 679.78119 0.78861097 680.56445 1.7675781 680.56445 L 2.8339844 680.56445 C 1.263677 680.56445 0 681.82813 0 683.39844 L 0 997.16602 C 0 998.73632 1.263677 1000 2.8339844 1000 L 147.21875 1000 C 148.78906 1000 150.05469 998.73632 150.05469 997.16602 L 150.05469 683.39844 C 150.05469 681.82813 148.78906 680.56445 147.21875 680.56445 L 277.50977 680.56445 C 278.27868 642.61475 288.77413 607.04368 306.61719 576.1875 C 286.92341 543.4199 275.60352 505.1097 275.60352 464.17188 C 275.60352 381.80692 321.41857 310.0724 389.10352 272.73633 L 1.7675781 272.73633 z "
       transform="translate(0,52.362183)"
       id="path4192" />
    <path
       style="opacity:1;fill:url(#linearGradient4276);fill-opacity:1;stroke:none;stroke-width:1;stroke-miterlimit:4;stroke-dasharray:none;stroke-dashoffset:0;stroke-opacity:1"
       d="m 615.72266,268.82812 c 66.84541,38.10931 112.09179,111.32768 112.09179,195.39844 0,41.78564 -11.1794,80.89169 -30.6289,114.33789 20.00701,37.24884 24.70038,61.54646 25.55859,95.39649 10.67096,-3.92824 20.86858,-7.11336 30.57422,-9.51953 14.72964,-3.65171 28.20912,-5.47657 40.4375,-5.47657 32.23846,0 57.94672,8.4721 77.12305,25.41602 19.17632,16.94392 28.76367,39.58463 28.76367,67.92187 0,13.43828 -2.43136,26.21814 -7.29492,38.3418 -4.72461,11.9776 -13.40943,26.14622 -26.05469,42.50586 -3.47397,4.23598 -14.52209,16.50511 -33.14258,36.80859 -18.62049,20.15742 -44.8831,48.42198 -78.78906,84.79297 l 146.94922,0 -0.0742,45.24805 95.92969,0 c 1.5703,0 2.83398,-1.26368 2.83398,-2.83398 l 0,-313.85547 0,-17.51367 0,-395.17774 c 0,-0.99272 -0.77726,-1.79102 -1.74414,-1.79102 z"
       transform="translate(0,52.362183)"
       id="path4274"
       inkscape:connector-curvature="0"
       sodipodi:nodetypes="csccssssccccccssccssc" />
    <path
       inkscape:connector-curvature="0"
       id="path4278"
       d="m 70.299171,286.00579 c -0.87101,0 -1.571799,0.78251 -1.571799,1.75509 l 0,404.31692 c 0,0.9726 0.700789,1.7551 1.571799,1.7551 l 245.334879,0 c 0.68411,-37.94972 10.02317,-73.5196 25.89858,-104.37578 -17.52204,-32.7676 -27.5942,-71.07855 -27.5942,-112.01636 0,-82.36497 40.76286,-154.0989 100.98383,-191.43497 l -344.623089,0 z"
       style="opacity:0.19200003;fill:url(#linearGradient4282);fill-opacity:1;stroke:none;stroke-width:1;stroke-miterlimit:4;stroke-dasharray:none;stroke-dashoffset:0;stroke-opacity:1" />
    <path
       style="opacity:0.19200003;fill:url(#linearGradient4284);fill-opacity:1;stroke:none;stroke-width:1;stroke-miterlimit:4;stroke-dasharray:none;stroke-dashoffset:0;stroke-opacity:1"
       d="m 923.85628,282.09644 c 0.86026,0 1.55234,0.79871 1.55234,1.79143 l 0,412.69043 c 0,0.9926 -0.69208,1.7913 -1.55234,1.7913 l -242.29177,0 c -0.67563,-38.73559 -9.89885,-75.04212 -25.57734,-106.53734 17.30469,-33.4462 27.25192,-72.55059 27.25192,-114.33623 0,-84.07076 -40.25725,-157.29029 -99.73125,-195.39959 l 340.34844,0 z"
       id="path4280"
       inkscape:connector-curvature="0" />
    <path
       style="opacity:0.19200003;fill:url(#linearGradient4290);fill-opacity:1;stroke:none;stroke-width:1;stroke-miterlimit:4;stroke-dasharray:none;stroke-dashoffset:0;stroke-opacity:1"
       d="m 117.18351,246.91227 c -0.77532,0 -1.39913,0.78251 -1.39913,1.75509 l 0,404.31692 c 0,0.97259 0.62381,1.75509 1.39913,1.75509 l 218.38266,0 c 0.60896,-37.94971 8.92205,-73.51959 23.0534,-104.37577 -15.59708,-32.76759 -24.56273,-71.07855 -24.56273,-112.01636 0,-82.36497 36.2847,-154.0989 89.88986,-191.43497 l -306.76319,0 z"
       id="path4286"
       inkscape:connector-curvature="0" />
    <path
       inkscape:connector-curvature="0"
       id="path4288"
       d="m 876.9698,243.00292 c 0.76576,0 1.3818,0.79871 1.3818,1.79143 l 0,412.69036 c 0,0.99273 -0.61604,1.79144 -1.3818,1.79144 l -215.67387,0 c -0.6014,-38.73566 -8.81137,-75.04219 -22.76744,-106.53741 15.40362,-33.4462 24.25806,-72.55059 24.25806,-114.33623 0,-84.07075 -35.83464,-157.29029 -88.7749,-195.39959 l 302.95815,0 z"
       style="opacity:0.19200003;fill:url(#linearGradient4292);fill-opacity:1;stroke:none;stroke-width:1;stroke-miterlimit:4;stroke-dasharray:none;stroke-dashoffset:0;stroke-opacity:1" />
    <path
       inkscape:connector-curvature="0"
       id="path4294"
       d="m 158.05703,207.81876 c -0.6919,0 -1.24859,0.7825 -1.24859,1.75508 l 0,404.31692 c 0,0.97259 0.55669,1.75509 1.24859,1.75509 l 194.88587,0 c 0.54344,-37.94971 7.96209,-73.51959 20.57297,-104.37577 -13.91891,-32.76759 -21.91991,-71.07855 -21.91991,-112.01636 0,-82.36496 32.38066,-154.09889 80.21819,-191.43496 l -273.75712,0 z"
       style="opacity:0.19200003;fill:url(#linearGradient4298);fill-opacity:1;stroke:none;stroke-width:1;stroke-miterlimit:4;stroke-dasharray:none;stroke-dashoffset:0;stroke-opacity:1" />
    <path
       style="opacity:0.19200003;fill:url(#linearGradient4300);fill-opacity:1;stroke:none;stroke-width:1;stroke-miterlimit:4;stroke-dasharray:none;stroke-dashoffset:0;stroke-opacity:1"
       d="m 836.09441,203.9094 c 0.68337,0 1.23313,0.79871 1.23313,1.79144 l 0,412.69035 c 0,0.99273 -0.54976,1.79144 -1.23313,1.79144 l -192.46853,0 c -0.53669,-38.73566 -7.8633,-75.04219 -20.31778,-106.53741 13.74627,-33.4462 21.64802,-72.55059 21.64802,-114.33622 0,-84.07076 -31.97902,-157.2903 -79.22319,-195.3996 l 270.36148,0 z"
       id="path4296"
       inkscape:connector-curvature="0" />
    <text
       xml:space="preserve"
       style="font-style:normal;font-weight:normal;font-size:431.13265991px;line-height:125%;font-family:Sans;letter-spacing:0px;word-spacing:0px;fill:url(#linearGradient4724);fill-opacity:1;stroke:none;stroke-width:1px;stroke-linecap:butt;stroke-linejoin:miter;stroke-opacity:1"
       x="112.22207"
       y="1058.1842"
       id="text4590"
       sodipodi:linespacing="125%"
       transform="scale(1.0055324,0.99449808)"><tspan
         sodipodi:role="line"
         id="tspan4592"
         x="112.22207"
         y="1058.1842"
         style="fill:url(#linearGradient4724);fill-opacity:1">PE2</tspan></text>
  </g>
</svg>
