<?xml version="1.0" encoding="UTF-8" standalone="no"?>
<!-- Created with Inkscape (http://www.inkscape.org/) -->

<svg
   xmlns:dc="http://purl.org/dc/elements/1.1/"
   xmlns:cc="http://creativecommons.org/ns#"
   xmlns:rdf="http://www.w3.org/1999/02/22-rdf-syntax-ns#"
   xmlns:svg="http://www.w3.org/2000/svg"
   xmlns="http://www.w3.org/2000/svg"
   xmlns:xlink="http://www.w3.org/1999/xlink"
   xmlns:sodipodi="http://sodipodi.sourceforge.net/DTD/sodipodi-0.dtd"
   xmlns:inkscape="http://www.inkscape.org/namespaces/inkscape"
   width="1000"
   height="1000"
   id="svg2"
   version="1.1"
   inkscape:version="0.91 r13725"
   sodipodi:docname="poyEvo.svg"
   inkscape:export-filename="C:\Users\Johan\Desktop\JOHAN\HTML\poyEvo\logos\poyEvo.png"
   inkscape:export-xdpi="90"
   inkscape:export-ydpi="90">
  <defs
     id="defs4">
    <linearGradient
       inkscape:collect="always"
       id="linearGradient4477">
      <stop
         style="stop-color:#000000;stop-opacity:1;"
         offset="0"
         id="stop4479" />
      <stop
         style="stop-color:#000000;stop-opacity:0;"
         offset="1"
         id="stop4481" />
    </linearGradient>
    <linearGradient
       inkscape:collect="always"
       id="linearGradient4469">
      <stop
         style="stop-color:#000000;stop-opacity:1;"
         offset="0"
         id="stop4471" />
      <stop
         style="stop-color:#000000;stop-opacity:0;"
         offset="1"
         id="stop4473" />
    </linearGradient>
    <linearGradient
       inkscape:collect="always"
       id="linearGradient4264">
      <stop
         style="stop-color:#000000;stop-opacity:1;"
         offset="0"
         id="stop4266" />
      <stop
         style="stop-color:#000000;stop-opacity:0;"
         offset="1"
         id="stop4268" />
    </linearGradient>
    <radialGradient
       inkscape:collect="always"
       xlink:href="#linearGradient2843"
       id="radialGradient2849"
       cx="371.57996"
       cy="575.05316"
       fx="371.57996"
       fy="575.05316"
       r="160"
       gradientTransform="matrix(1.404493,-0.99549848,1.1299638,1.5941958,-799.89801,-66.74416)"
       gradientUnits="userSpaceOnUse" />
    <linearGradient
       id="linearGradient2843">
      <stop
         style="stop-color:#b78f00;stop-opacity:1;"
         offset="0"
         id="stop2845" />
      <stop
         style="stop-color:#000000;stop-opacity:1;"
         offset="1"
         id="stop2847" />
    </linearGradient>
    <radialGradient
       inkscape:collect="always"
       xlink:href="#linearGradient2843"
       id="radialGradient3815"
       gradientUnits="userSpaceOnUse"
       gradientTransform="matrix(1.404493,-0.99549848,1.1299638,1.5941958,-799.89801,-66.74416)"
       cx="371.57996"
       cy="575.05316"
       fx="371.57996"
       fy="575.05316"
       r="160" />
    <linearGradient
       inkscape:collect="always"
       xlink:href="#linearGradient4264"
       id="linearGradient4724"
       x1="500"
       y1="894.33746"
       x2="1016.0494"
       y2="881.99182"
       gradientUnits="userSpaceOnUse"
       spreadMethod="reflect"
       gradientTransform="matrix(0.99449812,0,0,0.99449813,153.80826,-120.30969)" />
    <linearGradient
       inkscape:collect="always"
       xlink:href="#linearGradient4469"
       id="linearGradient4475"
       x1="174.59427"
       y1="876.03809"
       x2="785.67419"
       y2="144.4881"
       gradientUnits="userSpaceOnUse" />
    <linearGradient
       inkscape:collect="always"
       xlink:href="#linearGradient4477"
       id="linearGradient4483"
       x1="902.65234"
       y1="72.904442"
       x2="387.59927"
       y2="711.91943"
       gradientUnits="userSpaceOnUse" />
  </defs>
  <sodipodi:namedview
     id="base"
     pagecolor="#ffffff"
     bordercolor="#666666"
     borderopacity="1.0"
     inkscape:pageopacity="0.0"
     inkscape:pageshadow="2"
     inkscape:zoom="0.29344931"
     inkscape:cx="792.39417"
     inkscape:cy="771.43396"
     inkscape:document-units="px"
     inkscape:current-layer="layer1"
     showgrid="false"
     inkscape:window-width="1920"
     inkscape:window-height="1027"
     inkscape:window-x="-8"
     inkscape:window-y="-8"
     inkscape:window-maximized="1"
     inkscape:snap-page="true"
     inkscape:snap-nodes="false"
     inkscape:snap-bbox="true"
     inkscape:bbox-nodes="true" />
  <metadata
     id="metadata7">
    <rdf:RDF>
      <cc:Work
         rdf:about="">
        <dc:format>image/svg+xml</dc:format>
        <dc:type
           rdf:resource="http://purl.org/dc/dcmitype/StillImage" />
        <dc:title />
      </cc:Work>
    </rdf:RDF>
  </metadata>
  <g
     inkscape:label="Calque 1"
     inkscape:groupmode="layer"
     id="layer1"
     transform="translate(0,-52.362183)">
    <g
       id="g3811"
       transform="matrix(0.66340189,0,0,0.66340189,247.03678,68.39151)"
       style="opacity:1;">
      <path
         id="path2839"
         d="m 290.62873,405.72384 c -17.4195,0 -31.5599,26.62377 -31.5599,59.42976 0,32.80599 14.1404,59.36572 31.5599,59.36572 17.4195,0 31.5214,-26.55973 31.5214,-59.36572 0,-32.80599 -14.1019,-59.42976 -31.5214,-59.42976 z m 179.8027,2.49759 c -17.4195,0 -31.5599,26.55973 -31.5599,59.36572 0,32.80598 14.1404,59.42976 31.5599,59.42976 17.4195,0 31.5214,-26.62378 31.5214,-59.42976 0,-32.80599 -14.1019,-59.36572 -31.5214,-59.36572 z"
         style="fill:#000000;fill-opacity:1;stroke:none"
         inkscape:connector-curvature="0" />
      <path
         id="path2816"
         d="m 527.30923,261.7812 c -64.8291,35.15562 -116.8342,190.42628 -146.9733,259.68501 -30.2579,-66.25142 -81.8964,-219.03041 -146.1409,-252.76861 -104.428,54.84064 -175.663652,164.35024 -175.663652,290.48858 0,61.34376 16.85551,118.74966 46.173342,167.85065 -26.689662,46.45786 -42.344672,100.04766 -43.355552,157.21985 l 46.813752,0 c 0.84253,-40.8857 10.43182,-79.63254 26.96113,-114.44067 60.14744,71.69067 150.39358,117.25847 251.29568,117.25847 94.24,0 179.1894,-39.7683 238.9999,-103.42568 14.9042,33.30151 23.5391,70.03088 24.3355,108.67708 l 46.8136,0 c -0.9519,-53.8349 -14.8416,-104.50792 -38.7445,-149.02272 35.67,-52.48064 56.4839,-115.87865 56.4839,-184.11698 0,-130.65344 -76.4216,-243.42433 -186.9989,-296.12416 l 0,-1.28082 z m 0,54.24247 c 83.763,48.66181 140.1211,139.30861 140.1211,243.16251 0,155.21805 -125.7925,281.0746 -281.0106,281.0746 -155.21807,0 -281.0746,-125.85655 -281.0746,-281.0746 0,-99.13657 51.30995,-186.26919 128.8499,-236.31015 56.0597,36.17856 98.4174,190.11297 117.5787,255.58639 l 9.478,0 39.0008,0 9.478,0 c 19.1613,-67.60885 61.519,-223.35112 117.5787,-260.70965 l 0,-1.7291 z"
         style="fill:url(#radialGradient3815);fill-opacity:1;stroke:none"
         inkscape:connector-curvature="0" />
    </g>
    <path
       style="opacity:1;fill:url(#linearGradient4475);fill-opacity:1;stroke:url(#linearGradient4483);stroke-width:20;stroke-linejoin:round;stroke-miterlimit:4;stroke-dasharray:none;stroke-dashoffset:0;stroke-opacity:1"
       d="M 138.85742 10 C 67.469886 10 10 67.469886 10 138.85742 L 10 861.14258 C 10 932.53011 67.469886 990 138.85742 990 L 861.14258 990 C 932.53011 990 990 932.53011 990 861.14258 L 990 138.85742 C 990 67.469886 932.53011 10 861.14258 10 L 138.85742 10 z M 596.26562 169.69141 A 20.002 20.002 0 0 1 610.54883 175.125 C 687.88497 214.31981 740.91016 294.54665 740.91016 386.98047 C 740.91016 432.04172 728.21145 474.27048 706.3418 510.23047 C 720.39274 539.86891 728.52418 572.88088 729.13867 607.63281 A 20.002 20.002 0 0 1 709.14258 627.98633 L 678.08594 627.98633 A 20.002 20.002 0 0 1 658.08984 608.39844 C 657.82641 595.61526 655.98538 583.26798 652.99805 571.37695 C 612.13516 604.55047 560.01414 624.50195 503.38867 624.50195 C 442.40144 624.50195 386.66531 601.36854 344.56055 563.47656 C 341.16815 576.14185 339.07146 589.34024 338.78906 603.04492 A 20.002 20.002 0 0 1 318.79297 622.63281 L 287.73633 622.63281 A 20.002 20.002 0 0 1 267.73828 602.2793 C 268.39752 564.99481 277.75481 529.74556 293.74414 498.5 C 276.01299 465.22486 265.86719 427.23217 265.86719 386.98047 C 265.86719 295.77024 317.43733 216.29879 393.10352 176.5625 A 20.002 20.002 0 0 1 411.70117 176.5625 C 442.06033 192.50571 460.32763 226.43772 477.30859 261.25781 C 485.31989 277.6853 492.56401 294.49014 499.04297 309.92969 C 505.67797 293.69195 513.15991 275.95348 521.43945 258.6875 C 538.51675 223.07484 556.94001 188.57429 587.32031 172.09961 A 20.002 20.002 0 0 1 596.26562 169.69141 z M 596.85547 189.68164 C 553.84772 213.00395 519.3459 316.01066 499.35156 361.95703 C 479.27842 318.0057 445.02226 216.65151 402.40234 194.26953 C 333.1246 230.6509 285.86719 303.30006 285.86719 386.98047 C 285.86719 427.67603 297.04854 465.76029 316.49805 498.33398 C 298.79208 529.15421 288.40695 564.70467 287.73633 602.63281 L 318.79297 602.63281 C 319.3519 575.50916 325.71215 549.80467 336.67773 526.71289 C 376.57966 574.27261 436.45002 604.50195 503.38867 604.50195 C 565.90766 604.50195 622.26302 578.12104 661.94141 535.89062 C 671.82889 557.9829 677.55761 582.34836 678.08594 607.98633 L 709.14258 607.98633 C 708.51109 572.27215 699.29668 538.6562 683.43945 509.125 C 707.10299 474.30925 720.91016 432.24991 720.91016 386.98047 C 720.91016 300.30473 670.21266 225.49242 596.85547 190.53125 L 596.85547 189.68164 z M 596.85547 225.66602 C 652.424 257.94836 689.81055 318.0836 689.81055 386.98047 C 689.81055 489.95242 606.36065 573.44531 503.38867 573.44531 C 400.4167 573.44531 316.92383 489.95242 316.92383 386.98047 C 316.92383 321.21308 350.96219 263.41016 402.40234 230.21289 C 416.79284 239.49991 429.8136 260.49974 441.11719 285.25391 C 440.69474 285.20591 440.26872 285.17383 439.83984 285.17383 C 428.28371 285.17383 418.9043 302.83605 418.9043 324.59961 C 418.9043 346.36316 428.28371 363.98242 439.83984 363.98242 C 449.67924 363.98242 457.92015 351.20552 460.15234 333.97656 C 468.81522 359.3326 475.67582 383.61251 480.4043 399.76953 L 486.69141 399.76953 L 512.56445 399.76953 L 518.85352 399.76953 C 523.48852 383.41535 530.17611 359.28088 538.59766 334.02148 C 540.52371 352.04859 548.9844 365.64062 559.12109 365.64062 C 570.67722 365.64062 580.0332 347.97644 580.0332 326.21289 C 580.0332 304.44933 570.67722 286.83008 559.12109 286.83008 C 558.14356 286.83008 557.18423 286.96498 556.24219 287.20898 C 567.97536 260.19505 581.65539 236.94193 596.85547 226.8125 L 596.85547 225.66602 z M 599.92383 251.52539 C 594.79977 257.77462 588.92773 266.64893 583.17383 277.42383 C 586.65114 280.95088 589.45588 284.99114 591.57422 288.98047 C 597.33551 299.83037 600.0332 312.46517 600.0332 326.21289 C 600.0332 339.96062 597.33564 352.60082 591.58008 363.45703 C 585.82451 374.31323 575.08953 385.64062 559.12109 385.64062 C 553.75739 385.64062 548.94514 384.28702 544.70703 382.12305 C 542.29466 390.46549 539.9308 398.74766 538.0957 405.22266 A 20.002 20.002 0 0 1 518.85352 419.76953 L 512.56445 419.76953 L 486.69141 419.76953 L 480.4043 419.76953 A 20.002 20.002 0 0 1 461.20898 405.38672 C 459.1898 398.48726 456.63229 389.70133 453.92969 380.61328 C 449.76294 382.68645 445.05633 383.98242 439.83984 383.98242 C 423.89732 383.98242 413.15058 372.69273 407.38086 361.84375 C 401.61114 350.99478 398.9043 338.35451 398.9043 324.59961 C 398.9043 310.84471 401.61076 298.2007 407.375 287.3457 C 409.23617 283.84081 411.6719 280.32574 414.57812 277.12109 C 409.73569 268.50707 404.91553 261.5901 400.5332 256.1875 C 361.82034 286.64899 336.92383 333.75511 336.92383 386.98047 C 336.92383 479.14134 411.22778 553.44531 503.38867 553.44531 C 595.54956 553.44531 669.81055 479.1469 669.81055 386.98047 C 669.81055 330.94756 642.18425 281.69017 599.92383 251.52539 z M 360.95703 625.80273 A 20.002 20.002 0 0 1 362.2207 625.83398 C 385.39988 627.12551 405.89928 633.92085 420.4707 648.33203 C 425.05962 652.8705 428.77985 658.07446 431.85352 663.70117 C 431.47481 662.28991 431.09578 660.87068 430.96094 659.53711 A 20.002 20.002 0 0 1 430.85938 657.52539 C 430.85938 647.8142 439.44109 637.36947 446.47461 634.23438 C 453.50814 631.09926 459.39318 630.82617 465.88867 630.82617 L 550.71094 630.82617 C 553.41009 630.70258 556.04799 630.61719 558.56445 630.61719 C 568.44813 630.61719 576.94954 631.36461 585.29297 634.35547 C 593.63639 637.34634 603.2717 644.51428 606.39453 655.32422 L 605.97266 654.0332 L 613.59375 674.96875 A 20.002 20.002 0 0 1 614.4043 677.8457 C 615.64466 683.97942 616.60032 690.3576 613.50195 698.53125 C 610.40358 706.7049 599.96307 714.20621 591.9043 715.0918 A 20.002 20.002 0 0 1 589.7207 715.21094 C 571.87827 715.21094 562.9347 704.41195 553.08594 692.39844 C 547.21441 685.23635 543.42867 683.66122 538.91016 683.38867 L 527.98242 683.38867 C 527.72608 685.36663 527.47659 687.8725 527.58008 691.25 A 20.002 20.002 0 0 1 527.58984 691.86133 L 527.58984 732.99219 L 530.24219 732.99219 C 531.13219 729.1394 532.63717 725.18717 535.60938 721.21875 C 540.47231 714.72587 550.06033 710.38281 557.54492 710.38281 C 564.84477 710.38281 574.77869 714.68492 579.64258 721.63086 C 584.50646 728.5768 585.16602 735.30484 585.16602 741.26758 L 585.16602 780.62695 C 585.16602 786.22325 584.63968 792.54251 580.05664 799.3418 C 575.4736 806.14109 565.59524 810.67578 558.39258 810.67578 C 551.45709 810.67579 542.62097 807.33865 537.38086 801.41602 C 534.5284 798.19203 532.76617 794.79007 531.58398 791.41602 L 527.58984 791.41602 L 527.58984 825.01172 C 527.58984 827.22534 527.80438 828.65426 527.98828 830.13281 L 550.46484 830.13281 C 560.75896 828.3277 567.92729 824.79978 573.58203 819.55664 C 583.83338 810.05146 590.62566 801.66211 607.50195 801.66211 A 20.002 20.002 0 0 1 609.95508 801.8125 C 617.54861 802.75127 627.22191 809.47184 630.50977 817.05859 C 633.79764 824.64533 633.22541 830.79104 632.34375 836.45898 A 20.002 20.002 0 0 1 632.17383 837.29688 C 642.51439 822.70503 658.25454 812.39623 677.64844 804.77344 C 686.12504 800.89517 689.13734 796.98991 690.72461 786.73438 C 690.5305 781.67933 689.46517 779.95342 688.6582 779.08789 C 687.90103 778.27578 686.02794 776.99403 681.3125 776.21289 C 676.38992 777.27393 674.47796 778.99446 671.99414 784.26172 C 670.31842 788.8099 667.49023 793.56554 662.97461 797.18164 C 657.50359 801.56283 650.48442 803.34961 644.75781 803.34961 A 20.002 20.002 0 0 1 635.89258 801.27734 C 628.10724 797.42738 622.99738 789.19619 621.36914 782.58398 C 619.7409 775.97176 620.0828 770.20259 620.93555 764.20508 A 20.002 20.002 0 0 1 621.56836 761.30859 C 628.48703 738.08473 649.56115 722.34 675.48242 715.27344 A 20.002 20.002 0 0 1 681.0918 714.57227 C 699.59549 714.89617 716.21592 718.65878 729.76758 727.86719 C 743.31924 737.0756 752.41112 751.86964 755.78906 768.20117 A 20.002 20.002 0 0 1 756.20312 772.25195 L 756.20312 783.13867 C 756.20312 795.11012 753.07709 806.49315 747.66016 816.61328 C 752.08726 818.39985 755.81494 821.47193 757.98438 824.33203 C 760.80002 828.04408 761.94705 831.33393 762.77344 834.30469 C 764.42623 840.24622 764.66992 845.52654 764.66992 851.80664 A 20.002 20.002 0 0 1 764.61523 853.28906 C 764.07393 860.57 762.46778 868.6437 755.72266 875.79102 C 749.63325 882.24361 739.80699 884.82965 732.14844 884.37305 L 652.95703 884.99609 A 20.002 20.002 0 0 1 651.21094 884.93555 C 647.09536 884.60735 642.55111 883.80362 637.60742 880.95703 C 632.66373 878.11053 627.71012 872.3392 625.90039 866.23633 C 625.60031 865.22439 625.43489 864.28574 625.24219 863.33203 C 622.82739 869.50619 618.76126 875.63076 612.39062 879.72656 C 605.32557 884.26886 597.17123 885.15644 590.00586 884.36914 L 462.71289 884.36914 A 20.002 20.002 0 0 1 461.30273 884.31836 C 455.48127 883.90706 449.59389 883.07721 443.08984 878.94141 C 436.58578 874.80561 430.85938 864.96053 430.85938 856.83008 C 430.85938 849.32082 435.17495 839.23569 442.2832 834.21484 C 446.08556 831.52908 449.85111 830.11869 453.50586 829.3418 C 453.64688 827.85203 453.81718 826.35107 453.73438 824.05664 A 20.002 20.002 0 0 1 453.7207 823.33398 L 453.7207 684.94531 C 450.07519 684.13412 446.34891 682.71335 442.70508 680.13867 C 440.12406 678.31495 438.03679 675.82229 436.23828 673.14844 C 439.99845 683.13953 441.89786 694.20162 442.07031 705.79883 A 20.002 20.002 0 0 1 442.03125 707.37695 C 440.69365 728.21297 434.13025 746.99812 420.22461 759.9043 C 406.31897 772.81048 387.00966 777.83671 366.38672 777.16797 L 367.03516 777.17969 L 339.61914 777.17969 L 339.61914 830.36133 C 342.88742 830.8199 346.30091 831.79867 349.9043 833.69922 C 357.17155 837.53221 363.18392 846.9009 364.04883 854.59961 A 20.002 20.002 0 0 1 364.07227 854.82031 C 364.99209 863.91772 358.16585 876.38373 350.41992 880.64062 C 342.67402 884.89753 336.03172 885.20703 328.93359 885.20703 L 280.94922 885.20703 C 274.82664 885.50743 268.7899 885.25748 261.9707 882.30078 C 254.73944 879.16538 247.15373 870.41698 245.70703 861.83203 A 20.002 20.002 0 0 1 245.42969 858.50781 C 245.42969 851.45572 248.60951 841.56909 256.06836 835.89258 C 259.81443 833.04166 263.69358 831.49841 267.44336 830.72461 L 267.44336 678.31445 C 265.61118 678.02285 263.72125 677.60268 261.70898 676.93945 C 254.3574 674.51647 245.07358 665.17662 243.89453 655.84766 A 20.002 20.002 0 0 1 243.73633 653.33984 C 243.73633 644.744 250.6913 633.74326 258.19727 629.97266 C 265.30751 626.40089 271.33061 626.19508 277.39258 626.42969 L 360.95703 625.80273 z M 361.10742 645.80273 L 277.49414 646.42969 C 268.3214 646.01098 263.73633 648.3153 263.73633 653.33984 C 264.3008 657.80609 269.38046 659.47985 278.97656 658.36328 C 284.62133 658.36328 287.44336 662.27194 287.44336 670.08789 L 287.44336 834.22266 C 287.44336 843.15517 283.77374 848.45797 276.43555 850.13281 C 269.09735 849.57453 265.42969 852.36671 265.42969 858.50781 C 266.2764 863.53235 271.42588 865.76532 280.88086 865.20703 L 328.93359 865.20703 C 339.65864 865.20703 344.7383 862.41484 344.17383 856.83203 C 343.60935 851.80749 339.37533 849.57453 331.47266 850.13281 C 323.00551 849.57453 319.05466 843.71252 319.61914 832.54688 L 319.61914 757.17969 L 367.03516 757.17969 C 401.46822 758.29625 419.81436 741.26942 422.07227 706.09766 C 421.50779 668.13448 401.18525 648.03585 361.10742 645.80273 z M 558.56445 650.61719 C 556.12133 650.61719 553.52331 650.68659 550.77148 650.82617 L 465.88867 650.82617 C 455.86921 650.82617 450.85938 653.05914 450.85938 657.52539 C 451.42385 663.10821 455.3747 665.90039 462.71289 665.90039 C 469.48661 666.45867 473.15623 672.32069 473.7207 683.48633 L 473.7207 823.33594 C 474.28518 838.96784 470.61556 847.34241 462.71289 848.45898 C 454.81022 848.45898 450.85938 851.24921 450.85938 856.83203 C 450.85937 861.29829 454.81022 863.81086 462.71289 864.36914 L 590.56836 864.36914 C 599.59998 866.04399 605.24405 862.41494 607.50195 853.48242 L 612.58203 833.38477 C 613.71098 826.1271 612.01776 822.22039 607.50195 821.66211 C 602.98614 821.66211 596.2113 825.84843 587.17969 834.22266 C 578.14807 842.59689 566.57675 847.89969 552.46484 850.13281 L 519.44336 850.13281 C 511.54069 849.01625 507.58984 840.64362 507.58984 825.01172 L 507.58984 771.41602 L 536.37695 771.41602 C 544.27962 770.85774 548.65524 773.92757 549.50195 780.62695 C 550.34867 787.32634 553.31229 790.67579 558.39258 790.67578 C 562.90839 790.67578 565.16602 787.32634 565.16602 780.62695 L 565.16602 741.26758 C 565.16602 734.00991 562.62521 730.38281 557.54492 730.38281 C 552.46463 730.38281 549.64261 734.15069 549.07812 741.6875 C 548.51366 749.22431 544.5628 752.99219 537.22461 752.99219 L 507.58984 752.99219 L 507.58984 691.86133 C 507.02537 673.43802 511.54062 663.94696 521.13672 663.38867 L 539.76367 663.38867 C 550.48872 663.94696 560.08559 669.39053 568.55273 679.71875 C 577.01988 690.04697 584.07594 695.21094 589.7207 695.21094 C 594.80099 694.65266 596.49421 690.18478 594.80078 681.81055 L 587.17969 660.875 C 585.20402 654.03605 575.66632 650.61719 558.56445 650.61719 z M 327.24023 656.68945 L 341.63281 656.68945 C 368.72768 660.03915 382.55857 675.39223 383.12305 702.74805 C 380.86514 733.45356 366.75302 749.0843 340.78711 749.64258 L 319.61914 749.64258 L 319.61914 671.76172 C 317.36124 662.82921 319.90204 657.80602 327.24023 656.68945 z M 339.61914 676.68945 L 339.61914 729.64258 L 340.40625 729.64258 C 349.41479 729.44095 352.95971 727.46527 356 724.09766 C 358.96049 720.81844 362.03162 714.12568 363.05273 702.23047 C 362.70509 692.52412 360.41588 687.37727 357.4668 684.10352 C 354.50724 680.81813 349.64408 678.01545 339.99805 676.68945 L 339.61914 676.68945 z M 279.51953 678.33203 C 279.33668 678.34083 279.15379 678.34333 278.9707 678.36133 C 278.9717 678.36133 278.97556 678.36328 278.97656 678.36328 L 279.51953 678.33203 z M 461.03711 685.82031 C 461.04531 685.82111 461.06231 685.83331 461.07031 685.83398 L 462.71289 685.90039 C 462.17091 685.90039 461.59137 685.83741 461.03711 685.82031 z M 680.74219 734.56836 C 658.72761 740.56989 645.39326 751.38763 640.73633 767.01953 C 639.46626 775.95204 640.80648 781.39562 644.75781 783.34961 C 649.41474 783.34961 652.37837 780.97587 653.64844 776.23047 C 659.01096 764.64612 668.04147 757.87782 680.74219 755.92383 C 700.7811 757.87782 710.80078 768.62419 710.80078 788.16406 C 708.54288 804.91252 700.14659 816.56714 685.61133 823.12695 C 667.97144 829.96591 655.48272 838.68952 648.14453 849.29688 C 642.49977 859.06681 644.0514 864.3002 652.80078 864.99805 L 732.81641 864.36914 C 740.01348 865.48571 743.96434 861.29938 744.66992 851.80859 C 744.66992 841.20123 743.11634 835.61883 740.01172 835.06055 C 736.9071 834.50227 730.4174 835.89639 720.53906 839.24609 C 710.66073 842.59578 698.66464 844.27148 684.55273 844.27148 C 686.81064 839.24694 694.43111 834.22181 707.41406 829.19727 C 726.60626 819.70647 736.20312 804.35533 736.20312 783.14062 L 736.20312 772.25391 C 731.12284 747.6895 712.63509 735.12664 680.74219 734.56836 z M 545.16602 780.49023 C 545.02123 781.11912 545.16602 781.18218 545.16602 780.62695 L 545.16602 780.49023 z "
       id="rect4456"
       transform="translate(0,52.362183)" />
  </g>
</svg>
