<?xml version="1.0" encoding="UTF-8" standalone="no"?>
<!-- Created with Inkscape (http://www.inkscape.org/) -->

<svg
   xmlns:dc="http://purl.org/dc/elements/1.1/"
   xmlns:cc="http://creativecommons.org/ns#"
   xmlns:rdf="http://www.w3.org/1999/02/22-rdf-syntax-ns#"
   xmlns:svg="http://www.w3.org/2000/svg"
   xmlns="http://www.w3.org/2000/svg"
   xmlns:xlink="http://www.w3.org/1999/xlink"
   xmlns:sodipodi="http://sodipodi.sourceforge.net/DTD/sodipodi-0.dtd"
   xmlns:inkscape="http://www.inkscape.org/namespaces/inkscape"
   width="1000"
   height="1000"
   id="svg2"
   version="1.1"
   inkscape:version="0.91 r13725"
   sodipodi:docname="poyEvo.svg"
   inkscape:export-filename="C:\Users\Johan\Desktop\JOHAN\HTML\poyEvo\logos\poyEvo.png"
   inkscape:export-xdpi="18"
   inkscape:export-ydpi="18">
  <defs
     id="defs4">
    <linearGradient
       inkscape:collect="always"
       id="linearGradient4264">
      <stop
         style="stop-color:#000000;stop-opacity:1;"
         offset="0"
         id="stop4266" />
      <stop
         style="stop-color:#000000;stop-opacity:0;"
         offset="1"
         id="stop4268" />
    </linearGradient>
    <radialGradient
       inkscape:collect="always"
       xlink:href="#linearGradient2843"
       id="radialGradient2849"
       cx="371.57996"
       cy="575.05316"
       fx="371.57996"
       fy="575.05316"
       r="160"
       gradientTransform="matrix(1.404493,-0.99549848,1.1299638,1.5941958,-799.89801,-66.74416)"
       gradientUnits="userSpaceOnUse" />
    <linearGradient
       id="linearGradient2843">
      <stop
         style="stop-color:#b78f00;stop-opacity:1;"
         offset="0"
         id="stop2845" />
      <stop
         style="stop-color:#000000;stop-opacity:1;"
         offset="1"
         id="stop2847" />
    </linearGradient>
    <radialGradient
       inkscape:collect="always"
       xlink:href="#linearGradient2843"
       id="radialGradient3815"
       gradientUnits="userSpaceOnUse"
       gradientTransform="matrix(1.404493,-0.99549848,1.1299638,1.5941958,-799.89801,-66.74416)"
       cx="371.57996"
       cy="575.05316"
       fx="371.57996"
       fy="575.05316"
       r="160" />
    <linearGradient
       inkscape:collect="always"
       xlink:href="#linearGradient4264"
       id="linearGradient4724"
       x1="500"
       y1="894.33746"
       x2="1016.0494"
       y2="881.99182"
       gradientUnits="userSpaceOnUse"
       spreadMethod="reflect"
       gradientTransform="matrix(0.99449812,0,0,0.99449813,153.80826,-120.30969)" />
    <radialGradient
       inkscape:collect="always"
       xlink:href="#linearGradient2843"
       id="radialGradient4164"
       gradientUnits="userSpaceOnUse"
       gradientTransform="matrix(1.404493,-0.99549848,1.1299638,1.5941958,-812.87815,-306.87681)"
       cx="371.57996"
       cy="575.05316"
       fx="371.57996"
       fy="575.05316"
       r="160" />
    <radialGradient
       inkscape:collect="always"
       xlink:href="#linearGradient2843"
       id="radialGradient4172"
       gradientUnits="userSpaceOnUse"
       gradientTransform="matrix(1.404493,-0.99549848,1.1299638,1.5941958,-799.89801,-66.74416)"
       cx="418.4147"
       cy="525.66455"
       fx="418.4147"
       fy="525.66455"
       r="160" />
  </defs>
  <sodipodi:namedview
     id="base"
     pagecolor="#ffffff"
     bordercolor="#666666"
     borderopacity="1.0"
     inkscape:pageopacity="0.0"
     inkscape:pageshadow="2"
     inkscape:zoom="0.415"
     inkscape:cx="651.04072"
     inkscape:cy="656.69966"
     inkscape:document-units="px"
     inkscape:current-layer="layer1"
     showgrid="false"
     inkscape:window-width="1920"
     inkscape:window-height="1027"
     inkscape:window-x="-8"
     inkscape:window-y="-8"
     inkscape:window-maximized="1"
     inkscape:snap-page="true"
     inkscape:snap-nodes="false"
     inkscape:snap-bbox="true"
     inkscape:bbox-nodes="true" />
  <metadata
     id="metadata7">
    <rdf:RDF>
      <cc:Work
         rdf:about="">
        <dc:format>image/svg+xml</dc:format>
        <dc:type
           rdf:resource="http://purl.org/dc/dcmitype/StillImage" />
        <dc:title />
      </cc:Work>
    </rdf:RDF>
  </metadata>
  <g
     inkscape:label="Calque 1"
     inkscape:groupmode="layer"
     id="layer1"
     transform="translate(0,-52.362183)">
    <g
       id="g3811"
       transform="matrix(0.66340189,0,0,0.66340189,351.01268,438.39151)"
       style="opacity:1">
      <path
         id="path2839"
         d="m 290.62873,405.72384 c -17.4195,0 -31.5599,26.62377 -31.5599,59.42976 0,32.80599 14.1404,59.36572 31.5599,59.36572 17.4195,0 31.5214,-26.55973 31.5214,-59.36572 0,-32.80599 -14.1019,-59.42976 -31.5214,-59.42976 z m 179.8027,2.49759 c -17.4195,0 -31.5599,26.55973 -31.5599,59.36572 0,32.80598 14.1404,59.42976 31.5599,59.42976 17.4195,0 31.5214,-26.62378 31.5214,-59.42976 0,-32.80599 -14.1019,-59.36572 -31.5214,-59.36572 z"
         style="fill:#000000;fill-opacity:1;stroke:none"
         inkscape:connector-curvature="0" />
      <path
         id="path2816"
         d="m 527.30923,261.7812 c -64.8291,35.15562 -116.8342,190.42628 -146.9733,259.68501 -30.2579,-66.25142 -81.8964,-219.03041 -146.1409,-252.76861 -104.428,54.84064 -175.663652,164.35024 -175.663652,290.48858 0,61.34376 16.85551,118.74966 46.173342,167.85065 -26.689662,46.45786 -42.344672,100.04766 -43.355552,157.21985 l 46.813752,0 c 0.84253,-40.8857 10.43182,-79.63254 26.96113,-114.44067 60.14744,71.69067 150.39358,117.25847 251.29568,117.25847 94.24,0 179.1894,-39.7683 238.9999,-103.42568 14.9042,33.30151 23.5391,70.03088 24.3355,108.67708 l 46.8136,0 c -0.9519,-53.8349 -14.8416,-104.50792 -38.7445,-149.02272 35.67,-52.48064 56.4839,-115.87865 56.4839,-184.11698 0,-130.65344 -76.4216,-243.42433 -186.9989,-296.12416 l 0,-1.28082 z m 0,54.24247 c 83.763,48.66181 140.1211,139.30861 140.1211,243.16251 0,155.21805 -125.7925,281.0746 -281.0106,281.0746 -155.21807,0 -281.0746,-125.85655 -281.0746,-281.0746 0,-99.13657 51.30995,-186.26919 128.8499,-236.31015 56.0597,36.17856 98.4174,190.11297 117.5787,255.58639 l 9.478,0 39.0008,0 9.478,0 c 19.1613,-67.60885 61.519,-223.35112 117.5787,-260.70965 l 0,-1.7291 z"
         style="fill:url(#radialGradient3815);fill-opacity:1;stroke:none"
         inkscape:connector-curvature="0" />
    </g>
    <text
       xml:space="preserve"
       style="font-style:normal;font-variant:normal;font-weight:100;font-stretch:normal;font-size:282.7895813px;line-height:0%;font-family:Calligraphic;-inkscape-font-specification:'Calligraphic Thin';letter-spacing:-2.9780066px;word-spacing:-1.94895661px;writing-mode:tb-rl;fill:#000000;fill-opacity:1;stroke:none;stroke-width:1px;stroke-linecap:butt;stroke-linejoin:miter;stroke-opacity:1"
       x="144.49214"
       y="64.469193"
       id="text4154"
       sodipodi:linespacing="0%"
       transform="scale(1.1179209,0.89451767)"><tspan
         sodipodi:role="line"
         id="tspan4156"
         x="113.50437"
         y="95.456963">PE2</tspan></text>
    <g
       style="opacity:1"
       transform="matrix(0.37128073,0,0,0.37128073,395.88668,310.67324)"
       id="g4158">
      <path
         inkscape:connector-curvature="0"
         style="fill:#000000;fill-opacity:1;stroke:none"
         d="m 289.35819,148.10377 c -19.48477,-6.50064 -47.28049,12.92285 -62.04088,43.35888 -14.76039,30.43603 -10.89352,60.35397 8.59124,66.85461 19.48476,6.50064 47.2086,-12.8778 61.96899,-43.31383 14.76039,-30.43603 10.9654,-60.39902 -8.51935,-66.89966 z m 139.74225,49.31383 c -19.48477,-6.50064 -47.25167,12.86343 -62.01206,43.29946 -14.76039,30.43602 -10.92233,60.41339 8.56242,66.91403 19.48476,6.50064 47.23742,-12.93723 61.99781,-43.37325 14.76039,-30.43603 10.93658,-60.33961 -8.54817,-66.84024 z"
         id="path4160"
         sodipodi:nodetypes="ssssssssss" />
      <path
         inkscape:connector-curvature="0"
         style="fill:url(#radialGradient4164);fill-opacity:1;stroke:none"
         d="M 514.32909,21.648548 C 449.49999,56.804168 400.73993,79.028358 370.60083,148.28709 340.34293,82.035668 285.45939,62.303148 221.21489,28.564948 116.78689,83.405588 45.551235,192.91519 45.551235,319.05353 c 0,61.34376 16.85551,118.74966 46.173342,167.85065 -44.139473,166.35673 -41.915621,198.26643 30.419333,42.77918 60.14744,71.69067 150.39358,117.25847 251.29568,117.25847 94.24,0 179.1894,-39.7683 238.9999,-103.42568 10.65879,57.49469 108.76321,104.94269 32.4046,-40.34564 35.67,-52.48064 56.4839,-115.87865 56.4839,-184.11698 0,-130.65344 -76.4216,-243.424332 -186.9989,-296.124162 z m 0,54.24247 c 83.763,48.661812 140.1211,139.308612 140.1211,243.162512 0,155.21805 -125.7925,281.0746 -281.0106,281.0746 -155.21807,0 -281.074603,-125.85655 -281.074603,-281.0746 0,-99.13657 51.309953,-186.26919 128.849903,-236.310152 56.0597,36.178562 101.66244,57.066502 120.82374,122.539922 l 9.478,0 39.0008,0 9.478,0 c 19.1613,-67.60885 58.27396,-90.30465 114.33366,-127.663182 z"
         id="path4162"
         sodipodi:nodetypes="cccsccsccscccsssccccccc" />
    </g>
    <g
       id="g4166"
       transform="matrix(0.21144085,0,0,0.21144085,402.63991,49.688037)"
       style="opacity:1">
      <path
         id="path4168"
         d="m 228.59257,364.41233 c -50.01178,0 -90.60919,55.99556 -90.60919,124.99368 0,68.99811 40.59741,124.85899 90.60919,124.85899 50.01177,0 90.49865,-55.86088 90.49865,-124.85899 0,-68.99812 -40.48688,-124.99368 -90.49865,-124.99368 z"
         style="fill:#000000;fill-opacity:1;stroke:none"
         inkscape:connector-curvature="0"
         sodipodi:nodetypes="sssss" />
      <path
         sodipodi:nodetypes="ccsccsccscccsssccc"
         id="path4170"
         d="M 527.30923,261.7812 C 404.1748,209.99485 368.4911,193.79545 234.19503,268.6976 129.76703,323.53824 58.531378,433.04784 58.531378,559.18618 c 0,61.34376 16.85551,118.74966 46.173342,167.85065 l 30.41933,42.77918 c 60.14744,71.69067 150.39358,117.25847 251.29568,117.25847 94.24,0 179.1894,-39.7683 238.9999,-103.42568 l 32.4046,-40.34564 c 35.67,-52.48064 56.4839,-115.87865 56.4839,-184.11698 0,-130.65344 -76.4216,-243.42433 -186.9989,-296.12416 z m 0,54.24247 c 83.763,48.66181 140.1211,139.30861 140.1211,243.16251 0,155.21805 -125.7925,281.0746 -281.0106,281.0746 -155.21807,0 -281.0746,-125.85655 -281.0746,-281.0746 0,-99.13657 51.30995,-186.26919 128.8499,-236.31015 142.46066,-34.416 180.38303,17.09668 293.1142,-5.12326 z"
         style="fill:url(#radialGradient4172);fill-opacity:1;stroke:none"
         inkscape:connector-curvature="0" />
    </g>
  </g>
</svg>
